<?xml version="1.0" encoding="UTF-8"?>
<svg viewBox="0 0 640 480" xmlns="http://www.w3.org/2000/svg" xmlns:xlink="http://www.w3.org/1999/xlink">
 <defs>
  <linearGradient id="g">
   <stop stop-color="#fff" offset="0"/>
   <stop stop-color="#fff" stop-opacity="0" offset="1"/>
  </linearGradient>
  <linearGradient id="af" x1="-1.0484" x2="-1.0319" y1=".59533" y2=".59533" gradientTransform="matrix(2.5796 0 0 1.0694 2622 -335.3)">
   <stop stop-color="#93c3ea" offset="0"/>
   <stop stop-color="#93c3ea" stop-opacity="0" offset="1"/>
  </linearGradient>
  <linearGradient id="s" x1="-3.5255" x2="-3.4434" y1="-6.639" y2="-6.639" gradientTransform="matrix(.88792 -.064523 .072477 .99737 749.08 603.17)" xlink:href="#a"/>
  <linearGradient id="f">
   <stop stop-color="#448552" offset="0"/>
   <stop stop-color="#8f5902" offset="1"/>
  </linearGradient>
  <linearGradient id="d" x1=".30996" x2=".49998" y1=".88027" y2=".88027" xlink:href="#f"/>
  <linearGradient id="t" x1="-1.9533" x2="-1.9316" y1="-4.4911" y2="-4.4911" gradientTransform="matrix(.99737 -.072477 .072477 .99737 755.62 608.71)" xlink:href="#g"/>
  <linearGradient id="y" x1="2.9436" x2="2.9759" y1=".31787" y2=".31787" gradientTransform="matrix(1.8958 0 0 1.1538 255.94 -13.253)" xlink:href="#k"/>
  <linearGradient id="aa" x1="-1.5899" x2="-1.5232" y1="2.5396" y2="2.5396" gradientTransform="matrix(2.3394 0 0 1.1064 1777.2 -807.77)" xlink:href="#j"/>
  <linearGradient id="x" x1=".34385" x2=".49999" y1=".5" y2=".5" xlink:href="#j"/>
  <linearGradient id="v" x1="4.3944" x2="4.4288" y1="1.9133" y2="1.9133" gradientTransform="matrix(2.5064 0 0 1.4965 319.3 -102.63)" xlink:href="#i"/>
  <linearGradient id="w" x1="5.907" x2="5.9546" y1="2.7784" y2="2.7784" gradientTransform="matrix(1.8117 0 0 1.4965 -90.769 -136.63)" xlink:href="#i"/>
  <linearGradient id="c" x1=".49998" x2=".99997" y1=".76722" y2=".76722" xlink:href="#f"/>
  <linearGradient id="b" x1=".50002" x2=".50002" y1="-2.1e-5" y2="-2.1e-5" xlink:href="#f"/>
  <linearGradient id="m" x1="-6.3346" x2="-6.2607" y1="-10.866" y2="-10.866" gradientTransform="matrix(-.57969 -.042125 -.042125 .57969 720.38 971.12)" xlink:href="#g"/>
  <linearGradient id="k">
   <stop stop-color="#8a9da5" offset="0"/>
   <stop offset="1"/>
  </linearGradient>
  <linearGradient id="r" x1="-6.0428" x2="-5.8476" y1="-1.7602" y2="-1.7602" gradientTransform="translate(1846.4 144.73)" xlink:href="#a"/>
  <linearGradient id="z" x1=".4846" x2=".53844" y1=".31787" y2=".31787" gradientTransform="matrix(1.1404 0 0 1.1538 79.917 -13.253)" xlink:href="#k"/>
  <linearGradient id="q" x1="-9.7324" x2="-9.0592" y1="-2.5095" y2="-2.5095" gradientTransform="matrix(.66425 0 0 .66425 1724.4 446.11)" xlink:href="#a"/>
  <linearGradient id="u" x1="-.51899" x2="-.51899" y1=".2286" y2=".2286" gradientTransform="translate(770.38 574.73)">
   <stop stop-color="#555753" offset="0"/>
   <stop stop-color="#a4cded" offset="1"/>
  </linearGradient>
  <linearGradient id="o" x1="-9.5642" x2="-8.783" y1="-3.3644" y2="-3.3644" gradientTransform="matrix(.57108 -.086014 .086014 .57108 1323.7 530.57)" xlink:href="#a"/>
  <linearGradient id="a">
   <stop stop-color="#fff" offset="0"/>
   <stop stop-color="#d4e7f7" stop-opacity="0" offset="1"/>
  </linearGradient>
  <linearGradient id="l" x1="-7.6423" x2="-7.6157" y1="-2.6015" y2="-2.6015" gradientTransform="matrix(.86238 0 0 .86238 773.13 681.71)">
   <stop stop-color="#99bdd8" offset="0"/>
   <stop stop-color="#778a96" offset="1"/>
  </linearGradient>
  <linearGradient id="p" x1="-5.8846" x2="-5.658" y1="-2.3872" y2="-2.3872" gradientTransform="matrix(.85974 -.12949 .12949 .85974 1389.5 255.68)" xlink:href="#a"/>
  <linearGradient id="i">
   <stop stop-color="#729fcf" offset="0"/>
   <stop offset="1"/>
  </linearGradient>
  <linearGradient id="ac" x1="-6.0003" x2="-8.6158" y1="4.5235" y2="4.5235" gradientTransform="matrix(.51316 0 0 .46855 -348.3 -802.08)" xlink:href="#e"/>
  <linearGradient id="j">
   <stop stop-color="#8a9da5" offset="0"/>
   <stop stop-color="#74848a" offset="1"/>
  </linearGradient>
  <linearGradient id="ab" x1="1" x2="-.34209" y1="1.2107" y2="1.2107" xlink:href="#e"/>
  <linearGradient id="h" x1="-.026299" x2="-1.3684" y1="1.2669" y2="1.2669" gradientTransform="matrix(1 0 0 .74214 66.683 63.276)" xlink:href="#e"/>
  <linearGradient id="ae" x1=".5" x2=".5" y1="-.65994" y2="-.65994" gradientTransform="translate(3.2489e-6)">
   <stop offset="0"/>
   <stop stop-color="#204a87" offset="1"/>
  </linearGradient>
  <linearGradient id="ad" x1="-.20212" x2="-.74468" y1="2.2563" y2="2.2563" gradientTransform="matrix(2.4737 0 0 .49686 1954 -155.14)" xlink:href="#e"/>
  <linearGradient id="n" x1="-.20235" x2="-.20235" y1="-10.498" y2="-10.498" gradientTransform="translate(770.38 574.73)">
   <stop stop-color="#50653b" offset="0"/>
   <stop stop-color="#73d216" offset="1"/>
  </linearGradient>
  <linearGradient id="e">
   <stop stop-color="#898e79" offset="0"/>
   <stop stop-color="#a8ad9b" offset="1"/>
  </linearGradient>
 </defs>
 <rect x="-259" y="-31" width="1160.2" height="532.35" fill="url(#af)"/>
 <path d="m-121.51 250.19v17.248h-9.4863v208.7h94v-208.7h-11.211v-17.248h-73.303z" fill="url(#l)"/>
 <path d="m251.45 112.55c-17.13 2.367-30.18 17.947-32.68 34.567-5.8301 5.46-12.19 10.41-19.63 4.6-11.56-2.2001-24.07 4.4199-28.89 15.13-14.06-4.5801-30.58 10.94-24.17 25.16 4.27 10.65 18.75 14.88 28.42 9.0901 9.23 12.31 29.83 13.62 40.08 1.9199 9.43 4.46 21.55 9.96 30.91 2.34 8.85-5.6699 20.07-0.77991 28.85-6.21 7.35-6.32 15.02-9.02 24.23-5.99 10.46-0.21997 20.6-6.97 24.46-16.76 8.8099 9.61 26.52 6.29 31.65-5.58 6.5299 1.7899 13.28 9.07 21.29 4.4 14.99-6.2001 15.94-29.86 2.04-37.8-8.15-5.6-20.54-2.76-24.71 6.46-4.67 3.1-8.3501-7.43-15.06-5.22-8.6899-1.62-0.94995-14.12-8.37-18.916-5.86-8.483-18.76-10.802-26.6-3.71-6.14 4.532-4.93 24.506-14.92 13.276-6.08-8.822-15.05-15.214-25.8-16.684-3.66-0.59998-7.42-0.64099-11.1-0.072998z" fill="url(#p)"/>
 <path d="m258.4 141.4c-11.38 1.57-20.05 11.92-21.71 22.96-3.87 3.63-8.1 6.92-13.04 3.0601-7.68-1.47-15.99 2.93-19.19 10.05-9.34-3.05-20.31 7.2599-16.05 16.71 2.83 7.07 12.45 9.88 18.88 6.04 6.12 8.1699 19.81 9.0499 26.61 1.2699 6.27 2.9701 14.32 6.62 20.54 1.5601 5.88-3.77 13.33-0.52002 19.16-4.13 4.88-4.2 9.98-5.99 16.1-3.98 6.9401-0.14002 13.68-4.63 16.24-11.13 5.8601 6.38 17.62 4.1799 21.03-3.71 4.34 1.1899 8.8201 6.0299 14.14 2.9299 9.96-4.12 10.59-19.84 1.36-25.11-5.4199-3.72-13.65-1.84-16.42 4.29-3.1001 2.0599-5.55-4.9401-10-3.4701-5.78-1.08-0.63-9.38-5.5601-12.56-3.89-5.64-12.46-7.18-17.67-2.47-4.08 3.01-3.2699 16.28-9.9099 8.82-4.04-5.86-10-10.11-17.14-11.08-2.43-0.39996-4.93-0.42999-7.37-0.049988z" fill="url(#o)"/>
 <path d="m553 65.135c-19.887-0.24133-37.402 15.245-43.094 33.719-7.5612 5.207-15.652 9.7494-23.111 1.8659-12.769-4.4818-28.138 0.90637-35.451 12.259-15.204-7.6212-36.653 7.2053-31.8 24.479 3.0326 12.842 18.772 20.135 30.768 15.209 8.3796 15.574 31.593 20.599 45.25 9.0475 9.9596 6.6843 22.805 15.012 34.761 7.9563 11.034-4.9332 22.956 2.553 33.87-2.12 9.4404-5.9335 18.63-7.6884 28.585-2.6652 11.933 1.5374 24.628-4.4003 30.691-14.875 8.3733 12.438 29.088 11.703 36.952-0.92529 7.1254 3.161 13.548 12.595 23.456 8.6591 18.115-4.4889 23.253-31.233 8.8049-42.651-8.3101-7.7546-22.892-6.6557-29.217 3.1215-5.8389 2.7218-8.2264-9.8869-16.23-8.5156-9.6102-3.3396 1.3413-16.224-6.2821-22.951-5.2079-10.652-19.487-15.5-29.622-8.7778-7.7498 4.1041-9.797 27.027-19.234 12.542-5.4115-11.072-14.52-19.88-26.486-23.392-4.0664-1.3096-8.3368-2.0013-12.611-1.9844z" fill="url(#r)"/>
 <path d="m555.96 99.134c-13.21-0.16022-24.844 10.126-28.625 22.398-5.0225 3.4587-10.397 6.476-15.352 1.2394-8.4818-2.977-18.691 0.60211-23.549 8.1431-10.099-5.0624-24.347 4.7863-21.123 16.26 2.0143 8.5302 12.47 13.375 20.438 10.103 5.5663 10.345 20.986 13.683 30.057 6.0099 6.6157 4.4401 15.149 9.9719 23.09 5.2849 7.3297-3.277 15.249 1.6958 22.498-1.4082 6.271-3.9413 12.375-5.1071 18.988-1.7704 7.9263 1.0212 16.359-2.9228 20.386-9.8806 5.562 8.2622 19.322 7.7737 24.546-0.61462 4.733 2.0997 8.9994 8.3662 15.581 5.7518 12.033-2.9818 15.446-20.747 5.8488-28.331-5.52-5.151-15.206-4.4211-19.408 2.0735-3.8785 1.8079-5.4644-6.5675-10.781-5.6566-6.3837-2.2183 0.89099-10.777-4.1728-15.246-3.4595-7.0755-12.944-10.296-19.677-5.8307-5.148 2.7262-6.5077 17.953-12.776 8.3308-3.5945-7.3545-9.6451-13.205-17.594-15.538-2.7012-0.86987-5.5377-1.3293-8.3768-1.3182z" fill="url(#q)"/>
 <path d="m351 65.135v40h-20v292h-24v-172h-96v92h-14v-214h-88v150h-26v64h-2v80h-44v-158h-2v72l2 162v-2h806v-4h2v-234h-52v-154h-34v154h-16v160h-16v-162h-58v-71.062l-100-32.938v60h-84v136h-46v-218h-16v-40h-72z" fill="url(#u)"/>
 <path d="m399.9 272.91h145.47v193.83h-145.47v-193.83z" fill="#349ba4"/>
 <path d="m401.5 280.72v13.57h7.9399v-13.57h-7.9399zm10.338 0v13.57h7.9399v-13.57h-7.9399zm10.323 0v13.57h7.9545v-13.57h-7.9545zm10.338 0v13.57h7.94v-13.57h-7.94zm10.338 0v13.57h7.94v-13.57h-7.94zm10.323 0v13.57h7.9546v-13.57h-7.9546zm10.338 0v13.57h7.9399v-13.57h-7.9399zm10.338 0v13.57h7.9399v-13.57h-7.9399zm10.324 0v13.57h7.9544v-13.57h-7.9544zm10.338 0v13.57h7.94v-13.57h-7.94zm10.338 0v13.57h7.94v-13.57h-7.94zm10.323 0v13.57h7.9546v-13.57h-7.9546zm10.338 0v13.57h7.9398v-13.57h-7.9398zm10.338 0v13.57h7.9399v-13.57h-7.9399z" fill="#72cccf"/>
 <path d="m401.5 280.72v13.57h7.9399v-13.57h-7.9399zm10.338 0v13.57h7.9399v-13.57h-7.9399zm10.323 0v13.57h7.9546v-13.57h-7.9546zm10.338 0v13.57h7.9399v-13.57h-7.9399zm10.338 0v13.57h7.9399v-13.57h-7.9399zm10.323 0v13.57h7.9545v-13.57h-7.9545zm10.338 0v13.57h7.9399v-13.57h-7.9399zm10.338 0v13.57h7.9399v-13.57h-7.9399zm10.323 0v13.57h7.9546v-13.57h-7.9546zm10.338 0v13.57h7.94v-13.57h-7.94zm10.338 0v13.57h7.9399v-13.57h-7.9399zm10.323 0v13.57h7.9546v-13.57h-7.9546zm10.338 0v13.57h7.9399v-13.57h-7.9399zm10.338 0v13.57h7.9399v-13.57h-7.9399zm-134.34 16.962v13.57h7.9399v-13.57h-7.9399zm10.338 0v13.57h7.9399v-13.57h-7.9399zm10.323 0v13.57h7.9546v-13.57h-7.9546zm10.338 0v13.57h7.9399v-13.57h-7.9399zm10.338 0v13.57h7.9399v-13.57h-7.9399zm10.323 0v13.57h7.9545v-13.57h-7.9545zm10.338 0v13.57h7.9399v-13.57h-7.9399zm10.338 0v13.57h7.9399v-13.57h-7.9399zm10.323 0v13.57h7.9546v-13.57h-7.9546zm10.338 0v13.57h7.94v-13.57h-7.94zm10.338 0v13.57h7.9399v-13.57h-7.9399zm10.323 0v13.57h7.9546v-13.57h-7.9546zm10.338 0v13.57h7.9399v-13.57h-7.9399zm10.338 0v13.57h7.9399v-13.57h-7.9399zm-134.34 16.962v13.57h7.9399v-13.57h-7.9399zm10.338 0v13.57h7.9399v-13.57h-7.9399zm10.323 0v13.57h7.9546v-13.57h-7.9546zm10.338 0v13.57h7.9399v-13.57h-7.9399zm10.338 0v13.57h7.9399v-13.57h-7.9399zm10.323 0v13.57h7.9545v-13.57h-7.9545zm10.338 0v13.57h7.9399v-13.57h-7.9399zm10.338 0v13.57h7.9399v-13.57h-7.9399zm10.323 0v13.57h7.9546v-13.57h-7.9546zm10.338 0v13.57h7.94v-13.57h-7.94zm10.338 0v13.57h7.9399v-13.57h-7.9399zm10.323 0v13.57h7.9546v-13.57h-7.9546zm10.338 0v13.57h7.9399v-13.57h-7.9399zm10.338 0v13.57h7.9399v-13.57h-7.9399zm-134.34 16.962v13.57h7.9399v-13.57h-7.9399zm10.338 0v13.57h7.9399v-13.57h-7.9399zm10.323 0v13.57h7.9546v-13.57h-7.9546zm10.338 0v13.57h7.9399v-13.57h-7.9399zm10.338 0v13.57h7.9399v-13.57h-7.9399zm10.323 0v13.57h7.9545v-13.57h-7.9545zm10.338 0v13.57h7.9399v-13.57h-7.9399zm10.338 0v13.57h7.9399v-13.57h-7.9399zm10.323 0v13.57h7.9546v-13.57h-7.9546zm10.338 0v13.57h7.94v-13.57h-7.94zm10.338 0v13.57h7.9399v-13.57h-7.9399zm10.323 0v13.57h7.9546v-13.57h-7.9546zm10.338 0v13.57h7.9399v-13.57h-7.9399zm10.338 0v13.57h7.9399v-13.57h-7.9399zm-134.34 16.962v13.57h7.9399v-13.57h-7.9399zm10.338 0v13.57h7.9399v-13.57h-7.9399zm10.323 0v13.57h7.9546v-13.57h-7.9546zm10.338 0v13.57h7.9399v-13.57h-7.9399zm10.338 0v13.57h7.9399v-13.57h-7.9399zm10.323 0v13.57h7.9545v-13.57h-7.9545zm10.338 0v13.57h7.9399v-13.57h-7.9399zm10.338 0v13.57h7.9399v-13.57h-7.9399zm10.323 0v13.57h7.9546v-13.57h-7.9546zm10.338 0v13.57h7.94v-13.57h-7.94zm10.338 0v13.57h7.9399v-13.57h-7.9399zm10.323 0v13.57h7.9546v-13.57h-7.9546zm10.338 0v13.57h7.9399v-13.57h-7.9399zm10.338 0v13.57h7.9399v-13.57h-7.9399zm-134.34 16.962v13.57h7.9399v-13.57h-7.9399zm10.338 0v13.57h7.9399v-13.57h-7.9399zm10.323 0v13.57h7.9546v-13.57h-7.9546zm10.338 0v13.57h7.9399v-13.57h-7.9399zm10.338 0v13.57h7.9399v-13.57h-7.9399zm10.323 0v13.57h7.9545v-13.57h-7.9545zm10.338 0v13.57h7.9399v-13.57h-7.9399zm10.338 0v13.57h7.9399v-13.57h-7.9399zm10.323 0v13.57h7.9546v-13.57h-7.9546zm10.338 0v13.57h7.94v-13.57h-7.94zm10.338 0v13.57h7.9399v-13.57h-7.9399zm10.323 0v13.57h7.9546v-13.57h-7.9546zm10.338 0v13.57h7.9399v-13.57h-7.9399zm10.338 0v13.57h7.9399v-13.57h-7.9399zm-134.34 16.962v13.57h7.9399v-13.57h-7.9399zm10.338 0v13.57h7.9399v-13.57h-7.9399zm10.323 0v13.57h7.9546v-13.57h-7.9546zm10.338 0v13.57h7.9399v-13.57h-7.9399zm10.338 0v13.57h7.9399v-13.57h-7.9399zm10.323 0v13.57h7.9545v-13.57h-7.9545zm10.338 0v13.57h7.9399v-13.57h-7.9399zm10.338 0v13.57h7.9399v-13.57h-7.9399zm10.323 0v13.57h7.9546v-13.57h-7.9546zm10.338 0v13.57h7.94v-13.57h-7.94zm10.338 0v13.57h7.9399v-13.57h-7.9399zm10.323 0v13.57h7.9546v-13.57h-7.9546zm10.338 0v13.57h7.9399v-13.57h-7.9399zm10.338 0v13.57h7.9399v-13.57h-7.9399zm-134.34 16.962v13.57h7.9399v-13.57h-7.9399zm10.338 0v13.57h7.9399v-13.57h-7.9399zm10.323 0v13.57h7.9546v-13.57h-7.9546zm10.338 0v13.57h7.9399v-13.57h-7.9399zm10.338 0v13.57h7.9399v-13.57h-7.9399zm10.323 0v13.57h7.9545v-13.57h-7.9545zm10.338 0v13.57h7.9399v-13.57h-7.9399zm10.338 0v13.57h7.9399v-13.57h-7.9399zm10.323 0v13.57h7.9546v-13.57h-7.9546zm10.338 0v13.57h7.94v-13.57h-7.94zm10.338 0v13.57h7.9399v-13.57h-7.9399zm10.323 0v13.57h7.9546v-13.57h-7.9546zm10.338 0v13.57h7.9399v-13.57h-7.9399zm10.338 0v13.57h7.9399v-13.57h-7.9399zm-134.34 16.962v13.57h7.9399v-13.57h-7.9399zm10.338 0v13.57h7.9399v-13.57h-7.9399zm10.323 0v13.57h7.9546v-13.57h-7.9546zm10.338 0v13.57h7.9399v-13.57h-7.9399zm10.338 0v13.57h7.9399v-13.57h-7.9399zm10.323 0v13.57h7.9545v-13.57h-7.9545zm10.338 0v13.57h7.9399v-13.57h-7.9399zm10.338 0v13.57h7.9399v-13.57h-7.9399zm10.323 0v13.57h7.9546v-13.57h-7.9546zm10.338 0v13.57h7.94v-13.57h-7.94zm10.338 0v13.57h7.9399v-13.57h-7.9399zm10.323 0v13.57h7.9546v-13.57h-7.9546zm10.338 0v13.57h7.9399v-13.57h-7.9399zm10.338 0v13.57h7.9399v-13.57h-7.9399zm-134.34 16.962v33.427h7.9399v-33.427h-7.9399zm10.338 0v33.427h7.9399v-33.427h-7.9399zm10.323 0v33.427h7.9546v-33.427h-7.9546zm10.338 0v33.427h7.9399v-33.427h-7.9399zm10.338 0v33.427h7.9399v-33.427h-7.9399zm10.323 0v33.427h7.9545v-33.427h-7.9545zm10.338 0v33.427h7.9399v-33.427h-7.9399zm10.338 0v33.427h7.9399v-33.427h-7.9399zm10.323 0v33.427h7.9546v-33.427h-7.9546zm10.338 0v33.427h7.94v-33.427h-7.94zm10.338 0v33.427h7.9399v-33.427h-7.9399zm10.323 0v33.427h7.9546v-33.427h-7.9546zm10.338 0v33.427h7.9399v-33.427h-7.9399zm10.338 0v33.427h7.9399v-33.427h-7.9399z" fill="url(#ae)"/>
 <path d="m-261 480.29l313-24 345.97 4.67 0.03 5.22 190.05-2.37 234.95 4.37 16.05-6.84 68.12 6.95v41.14h-1164.2l-4-29.14z" fill="url(#n)"/>
 <rect transform="matrix(.83336 0 0 .35622 2064.2 1262.8)" x="-2268" y="-2823.7" width="160.72" height="316" fill="url(#ad)"/>
 <rect transform="matrix(-.83336 0 0 .35622 258.71 1262.8)" x="-87.498" y="-2708.7" width="64.973" height="472" fill="url(#h)"/>
 <path d="m323.79 303.65h-7.1244v14.249h7.1244v-14.249z" fill="#6b6f57"/>
 <path d="m323.79 321.46h-7.1244v14.249h7.1244v-14.249z" fill="#6b6f57"/>
 <path d="m323.79 339.28h-7.1244v14.249h7.1244v-14.249z" fill="#6b6f57"/>
 <path d="m323.79 357.09h-7.1244v14.249h7.1244v-14.249z" fill="#6b6f57"/>
 <path d="m323.79 374.9h-7.1244v14.249h7.1244v-14.249z" fill="#6b6f57"/>
 <path d="m323.79 392.71h-7.1244v14.249h7.1244v-14.249z" fill="#6b6f57"/>
 <path d="m323.79 410.52h-7.1244v14.249h7.1244v-14.249z" fill="#6b6f57"/>
 <g fill="#6b6f57">
  <path d="m302.13 261.62h-7.1244v14.249h7.1244v-14.249z"/>
  <path d="m302.13 279.43h-7.1244v14.249h7.1244v-14.249z"/>
  <path d="m291.29 261.62h-7.1244v14.249h7.1244v-14.249z"/>
  <path d="m291.29 279.43h-7.1244v14.249h7.1244v-14.249z"/>
 </g>
 <path d="m312.96 303.65h-7.1244v14.249h7.1244v-14.249z" fill="#6b6f57"/>
 <path d="m312.96 321.46h-7.1244v14.249h7.1244v-14.249z" fill="#6b6f57"/>
 <path d="m312.96 339.28h-7.1244v14.249h7.1244v-14.249z" fill="#6b6f57"/>
 <path d="m312.96 357.09h-7.1244v14.249h7.1244v-14.249z" fill="#6b6f57"/>
 <path d="m312.96 374.9h-7.1244v14.249h7.1244v-14.249z" fill="#6b6f57"/>
 <path d="m312.96 392.71h-7.1244v14.249h7.1244v-14.249z" fill="#6b6f57"/>
 <path d="m312.96 410.52h-7.1244v14.249h7.1244v-14.249z" fill="#6b6f57"/>
 <path d="m302.13 303.65h-7.1244v14.249h7.1244v-14.249z" fill="#6b6f57"/>
 <path d="m302.13 321.46h-7.1244v14.249h7.1244v-14.249z" fill="#6b6f57"/>
 <path d="m302.13 339.28h-7.1244v14.249h7.1244v-14.249z" fill="#6b6f57"/>
 <path d="m302.13 357.09h-7.1244v14.249h7.1244v-14.249z" fill="#6b6f57"/>
 <path d="m302.13 374.9h-7.1244v14.249h7.1244v-14.249z" fill="#6b6f57"/>
 <path d="m302.13 392.71h-7.1244v14.249h7.1244v-14.249z" fill="#6b6f57"/>
 <path d="m302.13 410.52h-7.1244v14.249h7.1244v-14.249z" fill="#6b6f57"/>
 <path d="m291.29 303.65h-7.1244v14.249h7.1244v-14.249z" fill="#6b6f57"/>
 <path d="m291.29 321.46h-7.1244v14.249h7.1244v-14.249z" fill="#6b6f57"/>
 <path d="m291.29 339.28h-7.1244v14.249h7.1244v-14.249z" fill="#6b6f57"/>
 <path d="m291.29 357.09h-7.1244v14.249h7.1244v-14.249z" fill="#6b6f57"/>
 <path d="m291.29 374.9h-7.1244v14.249h7.1244v-14.249z" fill="#6b6f57"/>
 <path d="m291.29 392.71h-7.1244v14.249h7.1244v-14.249z" fill="#6b6f57"/>
 <path d="m291.29 410.52h-7.1244v14.249h7.1244v-14.249z" fill="#6b6f57"/>
 <rect transform="matrix(.83336 0 0 .35622 1977.3 1268.5)" x="-2100.4" y="-3458.7" width="33.342" height="298" fill="url(#ac)"/>
 <path d="m231.33 57.86h7.1244v14.249h-7.1244v-14.249z" fill="#6b6f57"/>
 <path d="m231.33 75.671h7.1244v14.249h-7.1244v-14.249z" fill="#6b6f57"/>
 <path d="m231.33 93.482h7.1244v14.249h-7.1244v-14.249z" fill="#6b6f57"/>
 <path d="m231.33 111.29h7.1244v14.249h-7.1244v-14.249z" fill="#6b6f57"/>
 <path d="m242.16 57.86h7.1244v14.249h-7.1244v-14.249z" fill="#6b6f57"/>
 <path d="m242.16 75.671h7.1244v14.249h-7.1244v-14.249z" fill="#6b6f57"/>
 <path d="m242.16 93.482h7.1244v14.249h-7.1244v-14.249z" fill="#6b6f57"/>
 <path d="m242.16 111.29h7.1244v14.249h-7.1244v-14.249z" fill="#6b6f57"/>
 <rect transform="matrix(.83336 0 0 .35622 2183.9 1148.1)" x="-2365.4" y="-2880.7" width="64.973" height="636" fill="url(#ab)"/>
 <path d="m220.49 132.67h7.1244v14.249h-7.1244v-14.249z" fill="#6b6f57"/>
 <path d="m220.49 150.48h7.1244v14.249h-7.1244v-14.249z" fill="#6b6f57"/>
 <path d="m220.49 168.29h7.1244v14.249h-7.1244v-14.249z" fill="#6b6f57"/>
 <path d="m220.49 186.1h7.1244v14.249h-7.1244v-14.249z" fill="#6b6f57"/>
 <path d="m220.49 203.91h7.1244v14.249h-7.1244v-14.249z" fill="#6b6f57"/>
 <path d="m220.49 221.72h7.1244v14.249h-7.1244v-14.249z" fill="#6b6f57"/>
 <path d="m220.49 239.53h7.1244v14.249h-7.1244v-14.249z" fill="#6b6f57"/>
 <path d="m220.49 257.34h7.1244v14.249h-7.1244v-14.249z" fill="#6b6f57"/>
 <path d="m220.49 275.16h7.1244v14.249h-7.1244v-14.249z" fill="#6b6f57"/>
 <path d="m220.49 292.97h7.1244v14.249h-7.1244v-14.249z" fill="#6b6f57"/>
 <path d="m231.33 132.67h7.1244v14.249h-7.1244v-14.249z" fill="#6b6f57"/>
 <path d="m231.33 150.48h7.1244v14.249h-7.1244v-14.249z" fill="#6b6f57"/>
 <path d="m231.33 168.29h7.1244v14.249h-7.1244v-14.249z" fill="#6b6f57"/>
 <path d="m231.33 186.1h7.1244v14.249h-7.1244v-14.249z" fill="#6b6f57"/>
 <path d="m231.33 203.91h7.1244v14.249h-7.1244v-14.249z" fill="#6b6f57"/>
 <path d="m231.33 221.72h7.1244v14.249h-7.1244v-14.249z" fill="#6b6f57"/>
 <path d="m231.33 239.53h7.1244v14.249h-7.1244v-14.249z" fill="#6b6f57"/>
 <path d="m231.33 257.34h7.1244v14.249h-7.1244v-14.249z" fill="#6b6f57"/>
 <path d="m231.33 275.16h7.1244v14.249h-7.1244v-14.249z" fill="#6b6f57"/>
 <path d="m231.33 292.97h7.1244v14.249h-7.1244v-14.249z" fill="#6b6f57"/>
 <path d="m242.16 132.67h7.1244v14.249h-7.1244v-14.249z" fill="#6b6f57"/>
 <path d="m242.16 150.48h7.1244v14.249h-7.1244v-14.249z" fill="#6b6f57"/>
 <path d="m242.16 168.29h7.1244v14.249h-7.1244v-14.249z" fill="#6b6f57"/>
 <path d="m242.16 186.1h7.1244v14.249h-7.1244v-14.249z" fill="#6b6f57"/>
 <path d="m242.16 203.91h7.1244v14.249h-7.1244v-14.249z" fill="#6b6f57"/>
 <path d="m242.16 221.72h7.1244v14.249h-7.1244v-14.249z" fill="#6b6f57"/>
 <path d="m242.16 239.53h7.1244v14.249h-7.1244v-14.249z" fill="#6b6f57"/>
 <path d="m242.16 257.34h7.1244v14.249h-7.1244v-14.249z" fill="#6b6f57"/>
 <path d="m242.16 275.16h7.1244v14.249h-7.1244v-14.249z" fill="#6b6f57"/>
 <path d="m242.16 292.97h7.1244v14.249h-7.1244v-14.249z" fill="#6b6f57"/>
 <path d="m252.99 132.67h7.1244v14.249h-7.1244v-14.249z" fill="#6b6f57"/>
 <path d="m252.99 150.48h7.1244v14.249h-7.1244v-14.249z" fill="#6b6f57"/>
 <path d="m252.99 168.29h7.1244v14.249h-7.1244v-14.249z" fill="#6b6f57"/>
 <path d="m252.99 186.1h7.1244v14.249h-7.1244v-14.249z" fill="#6b6f57"/>
 <path d="m252.99 203.91h7.1244v14.249h-7.1244v-14.249z" fill="#6b6f57"/>
 <path d="m252.99 221.72h7.1244v14.249h-7.1244v-14.249z" fill="#6b6f57"/>
 <path d="m252.99 239.53h7.1244v14.249h-7.1244v-14.249z" fill="#6b6f57"/>
 <path d="m252.99 257.34h7.1244v14.249h-7.1244v-14.249z" fill="#6b6f57"/>
 <path d="m252.99 275.16h7.1244v14.249h-7.1244v-14.249z" fill="#6b6f57"/>
 <path d="m252.99 292.97h7.1244v14.249h-7.1244v-14.249z" fill="#6b6f57"/>
 <rect transform="matrix(.83336 0 0 .35622 2064.2 1262.8)" x="-2233.8" y="-2984.7" width="90.621" height="750" fill="#bbc0b1"/>
 <path d="m210.52 215.31h7.1244v14.249h-7.1244v-14.249z" fill="#6b6f57"/>
 <path d="m210.52 215.31h7.1244v14.249h-7.1244v-14.249z" fill="#6b6f57"/>
 <path d="m210.52 233.12h7.1244v14.249h-7.1244v-14.249z" fill="#6b6f57"/>
 <path d="m210.52 250.93h7.1244v14.249h-7.1244v-14.249z" fill="#6b6f57"/>
 <path d="m210.52 268.74h7.1244v14.249h-7.1244v-14.249z" fill="#6b6f57"/>
 <path d="m210.52 286.56h7.1244v14.249h-7.1244v-14.249z" fill="#6b6f57"/>
 <path d="m210.52 304.37h7.1244v14.249h-7.1244v-14.249z" fill="#6b6f57"/>
 <path d="m210.52 322.18h7.1244v14.249h-7.1244v-14.249z" fill="#6b6f57"/>
 <path d="m210.52 339.99h7.1244v14.249h-7.1244v-14.249z" fill="#6b6f57"/>
 <path d="m210.52 357.8h7.1244v14.249h-7.1244v-14.249z" fill="#6b6f57"/>
 <path d="m210.52 375.61h7.1244v14.249h-7.1244v-14.249z" fill="#6b6f57"/>
 <path d="m210.52 393.42h7.1244v14.249h-7.1244v-14.249z" fill="#6b6f57"/>
 <path d="m210.52 411.23h7.1244v14.249h-7.1244v-14.249z" fill="#6b6f57"/>
 <path d="m221.35 215.31h7.1244v14.249h-7.1244v-14.249z" fill="#6b6f57"/>
 <path d="m221.35 233.12h7.1244v14.249h-7.1244v-14.249z" fill="#6b6f57"/>
 <path d="m221.35 250.93h7.1244v14.249h-7.1244v-14.249z" fill="#6b6f57"/>
 <path d="m221.35 268.74h7.1244v14.249h-7.1244v-14.249z" fill="#6b6f57"/>
 <path d="m221.35 286.56h7.1244v14.249h-7.1244v-14.249z" fill="#6b6f57"/>
 <path d="m221.35 304.37h7.1244v14.249h-7.1244v-14.249z" fill="#6b6f57"/>
 <path d="m221.35 322.18h7.1244v14.249h-7.1244v-14.249z" fill="#6b6f57"/>
 <path d="m221.35 339.99h7.1244v14.249h-7.1244v-14.249z" fill="#6b6f57"/>
 <path d="m221.35 357.8h7.1244v14.249h-7.1244v-14.249z" fill="#6b6f57"/>
 <path d="m221.35 375.61h7.1244v14.249h-7.1244v-14.249z" fill="#6b6f57"/>
 <path d="m221.35 393.42h7.1244v14.249h-7.1244v-14.249z" fill="#6b6f57"/>
 <path d="m221.35 411.23h7.1244v14.249h-7.1244v-14.249z" fill="#6b6f57"/>
 <path d="m232.19 215.31h7.1244v14.249h-7.1244v-14.249z" fill="#6b6f57"/>
 <path d="m232.19 233.12h7.1244v14.249h-7.1244v-14.249z" fill="#6b6f57"/>
 <path d="m232.19 250.93h7.1244v14.249h-7.1244v-14.249z" fill="#6b6f57"/>
 <path d="m232.19 268.74h7.1244v14.249h-7.1244v-14.249z" fill="#6b6f57"/>
 <path d="m232.19 286.56h7.1244v14.249h-7.1244v-14.249z" fill="#6b6f57"/>
 <path d="m232.19 304.37h7.1244v14.249h-7.1244v-14.249z" fill="#6b6f57"/>
 <path d="m232.19 322.18h7.1244v14.249h-7.1244v-14.249z" fill="#6b6f57"/>
 <path d="m232.19 339.99h7.1244v14.249h-7.1244v-14.249z" fill="#6b6f57"/>
 <path d="m232.19 357.8h7.1244v14.249h-7.1244v-14.249z" fill="#6b6f57"/>
 <path d="m232.19 375.61h7.1244v14.249h-7.1244v-14.249z" fill="#6b6f57"/>
 <path d="m232.19 393.42h7.1244v14.249h-7.1244v-14.249z" fill="#6b6f57"/>
 <path d="m232.19 411.23h7.1244v14.249h-7.1244v-14.249z" fill="#6b6f57"/>
 <path d="m243.02 215.31h7.1244v14.249h-7.1244v-14.249z" fill="#6b6f57"/>
 <path d="m243.02 233.12h7.1244v14.249h-7.1244v-14.249z" fill="#6b6f57"/>
 <path d="m243.02 250.93h7.1244v14.249h-7.1244v-14.249z" fill="#6b6f57"/>
 <path d="m243.02 268.74h7.1244v14.249h-7.1244v-14.249z" fill="#6b6f57"/>
 <path d="m243.02 286.56h7.1244v14.249h-7.1244v-14.249z" fill="#6b6f57"/>
 <path d="m243.02 304.37h7.1244v14.249h-7.1244v-14.249z" fill="#6b6f57"/>
 <path d="m243.02 322.18h7.1244v14.249h-7.1244v-14.249z" fill="#6b6f57"/>
 <path d="m243.02 339.99h7.1244v14.249h-7.1244v-14.249z" fill="#6b6f57"/>
 <path d="m243.02 357.8h7.1244v14.249h-7.1244v-14.249z" fill="#6b6f57"/>
 <path d="m243.02 375.61h7.1244v14.249h-7.1244v-14.249z" fill="#6b6f57"/>
 <path d="m243.02 393.42h7.1244v14.249h-7.1244v-14.249z" fill="#6b6f57"/>
 <path d="m243.02 411.23h7.1244v14.249h-7.1244v-14.249z" fill="#6b6f57"/>
 <path d="m253.85 215.31h7.1244v14.249h-7.1244v-14.249z" fill="#6b6f57"/>
 <path d="m253.85 233.12h7.1244v14.249h-7.1244v-14.249z" fill="#6b6f57"/>
 <path d="m253.85 250.93h7.1244v14.249h-7.1244v-14.249z" fill="#6b6f57"/>
 <path d="m253.85 268.74h7.1244v14.249h-7.1244v-14.249z" fill="#6b6f57"/>
 <path d="m253.85 286.56h7.1244v14.249h-7.1244v-14.249z" fill="#6b6f57"/>
 <path d="m253.85 304.37h7.1244v14.249h-7.1244v-14.249z" fill="#6b6f57"/>
 <path d="m253.85 322.18h7.1244v14.249h-7.1244v-14.249z" fill="#6b6f57"/>
 <path d="m253.85 339.99h7.1244v14.249h-7.1244v-14.249z" fill="#6b6f57"/>
 <path d="m253.85 357.8h7.1244v14.249h-7.1244v-14.249z" fill="#6b6f57"/>
 <path d="m253.85 375.61h7.1244v14.249h-7.1244v-14.249z" fill="#6b6f57"/>
 <path d="m253.85 393.42h7.1244v14.249h-7.1244v-14.249z" fill="#6b6f57"/>
 <path d="m253.85 411.23h7.1244v14.249h-7.1244v-14.249z" fill="#6b6f57"/>
 <path d="m264.69 215.31h7.1244v14.249h-7.1244v-14.249z" fill="#6b6f57"/>
 <path d="m264.69 233.12h7.1244v14.249h-7.1244v-14.249z" fill="#6b6f57"/>
 <path d="m264.69 250.93h7.1244v14.249h-7.1244v-14.249z" fill="#6b6f57"/>
 <path d="m264.69 268.74h7.1244v14.249h-7.1244v-14.249z" fill="#6b6f57"/>
 <path d="m264.69 286.56h7.1244v14.249h-7.1244v-14.249z" fill="#6b6f57"/>
 <path d="m264.69 304.37h7.1244v14.249h-7.1244v-14.249z" fill="#6b6f57"/>
 <path d="m264.69 322.18h7.1244v14.249h-7.1244v-14.249z" fill="#6b6f57"/>
 <path d="m264.69 339.99h7.1244v14.249h-7.1244v-14.249z" fill="#6b6f57"/>
 <path d="m264.69 357.8h7.1244v14.249h-7.1244v-14.249z" fill="#6b6f57"/>
 <path d="m264.69 375.61h7.1244v14.249h-7.1244v-14.249z" fill="#6b6f57"/>
 <path d="m264.69 393.42h7.1244v14.249h-7.1244v-14.249z" fill="#6b6f57"/>
 <path d="m264.69 411.23h7.1244v14.249h-7.1244v-14.249z" fill="#6b6f57"/>
 <rect transform="matrix(.83336 0 0 .35622 2064.2 1262.8)" x="-2298.7" y="-2708.7" width="64.973" height="472" fill="url(#h)"/>
 <path d="m156.37 303.65h7.1244v14.249h-7.1244v-14.249z" fill="#6b6f57"/>
 <path d="m156.37 321.46h7.1244v14.249h-7.1244v-14.249z" fill="#6b6f57"/>
 <path d="m156.37 339.28h7.1244v14.249h-7.1244v-14.249z" fill="#6b6f57"/>
 <path d="m156.37 357.09h7.1244v14.249h-7.1244v-14.249z" fill="#6b6f57"/>
 <path d="m156.37 374.9h7.1244v14.249h-7.1244v-14.249z" fill="#6b6f57"/>
 <path d="m156.37 392.71h7.1244v14.249h-7.1244v-14.249z" fill="#6b6f57"/>
 <path d="m156.37 410.52h7.1244v14.249h-7.1244v-14.249z" fill="#6b6f57"/>
 <g fill="#6b6f57">
  <path d="m178.04 261.62h7.1244v14.249h-7.1244v-14.249z"/>
  <path d="m178.04 279.43h7.1244v14.249h-7.1244v-14.249z"/>
  <path d="m188.87 261.62h7.1244v14.249h-7.1244v-14.249z"/>
  <path d="m188.87 279.43h7.1244v14.249h-7.1244v-14.249z"/>
 </g>
 <path d="m167.21 303.65h7.1244v14.249h-7.1244v-14.249z" fill="#6b6f57"/>
 <path d="m167.21 321.46h7.1244v14.249h-7.1244v-14.249z" fill="#6b6f57"/>
 <path d="m167.21 339.28h7.1244v14.249h-7.1244v-14.249z" fill="#6b6f57"/>
 <path d="m167.21 357.09h7.1244v14.249h-7.1244v-14.249z" fill="#6b6f57"/>
 <path d="m167.21 374.9h7.1244v14.249h-7.1244v-14.249z" fill="#6b6f57"/>
 <path d="m167.21 392.71h7.1244v14.249h-7.1244v-14.249z" fill="#6b6f57"/>
 <path d="m167.21 410.52h7.1244v14.249h-7.1244v-14.249z" fill="#6b6f57"/>
 <path d="m178.04 303.65h7.1244v14.249h-7.1244v-14.249z" fill="#6b6f57"/>
 <path d="m178.04 321.46h7.1244v14.249h-7.1244v-14.249z" fill="#6b6f57"/>
 <path d="m178.04 339.28h7.1244v14.249h-7.1244v-14.249z" fill="#6b6f57"/>
 <path d="m178.04 357.09h7.1244v14.249h-7.1244v-14.249z" fill="#6b6f57"/>
 <path d="m178.04 374.9h7.1244v14.249h-7.1244v-14.249z" fill="#6b6f57"/>
 <path d="m178.04 392.71h7.1244v14.249h-7.1244v-14.249z" fill="#6b6f57"/>
 <path d="m178.04 410.52h7.1244v14.249h-7.1244v-14.249z" fill="#6b6f57"/>
 <path d="m188.87 303.65h7.1244v14.249h-7.1244v-14.249z" fill="#6b6f57"/>
 <path d="m188.87 321.46h7.1244v14.249h-7.1244v-14.249z" fill="#6b6f57"/>
 <path d="m188.87 339.28h7.1244v14.249h-7.1244v-14.249z" fill="#6b6f57"/>
 <path d="m188.87 357.09h7.1244v14.249h-7.1244v-14.249z" fill="#6b6f57"/>
 <path d="m188.87 374.9h7.1244v14.249h-7.1244v-14.249z" fill="#6b6f57"/>
 <path d="m188.87 392.71h7.1244v14.249h-7.1244v-14.249z" fill="#6b6f57"/>
 <path d="m188.87 410.52h7.1244v14.249h-7.1244v-14.249z" fill="#6b6f57"/>
 <rect transform="matrix(1.0148 0 0 1.0148 2179.4 896.04)" x="-1530.7" y="-796.28" width="65.66" height="30.305" fill="url(#z)"/>
 <rect transform="matrix(1.0148 0 0 1.0148 2179.4 896.04)" x="-1542.3" y="-768.47" width="88.893" height="345.47" fill="#8a9da5"/>
 <g fill="#555753">
  <rect transform="matrix(1.0148 0 0 1.0148 2176.1 896.04)" x="-1479.5" y="-716.62" width="4" height="292.94"/>
  <rect transform="matrix(1.0148 0 0 1.0148 2176.1 896.04)" x="-1468.1" y="-716.62" width="4" height="292.94"/>
  <rect transform="matrix(1.0148 0 0 1.0148 2176.1 896.04)" x="-1490.9" y="-716.62" width="4" height="292.94"/>
  <rect transform="matrix(1.0148 0 0 1.0148 2176.1 896.04)" x="-1502.4" y="-716.62" width="4" height="292.94"/>
  <rect transform="matrix(1.0148 0 0 1.0148 2176.1 896.04)" x="-1513.8" y="-716.62" width="4" height="292.94"/>
  <rect transform="matrix(1.0148 0 0 1.0148 2176.1 896.04)" x="-1525.2" y="-716.62" width="4" height="292.94"/>
 </g>
 <rect transform="matrix(1.0148 0 0 1.0148 2179.4 896.04)" x="-1504.5" y="-818.47" width="2.8284" height="23.335"/>
 <rect transform="matrix(1.0148 0 0 1.0148 2179.4 896.04)" x="-1492" y="-858.77" width="2.8284" height="62.933"/>
 <rect transform="matrix(.82538 0 0 .82538 2396.3 981.07)" x="-2028.6" y="-994.36" width="109.16" height="30.305" fill="url(#y)"/>
 <rect transform="matrix(.82538 0 0 .82538 2396.3 981.07)" x="-2040" y="-969.5" width="132.89" height="345.47" fill="url(#x)"/>
 <rect transform="matrix(.82538 0 0 .82538 2396.3 981.07)" x="-2032" y="-955.03" width="113.14" height="9.1924" fill="#555753"/>
 <rect transform="matrix(.82538 0 0 .82538 2396.3 981.07)" x="-2032" y="-933.91" width="113.14" height="9.1924" fill="#555753"/>
 <rect transform="matrix(.82538 0 0 .82538 2396.3 981.07)" x="-2032" y="-807.2" width="113.14" height="9.1924" fill="#555753"/>
 <rect transform="matrix(.82538 0 0 .82538 2396.3 981.07)" x="-2032" y="-786.08" width="113.14" height="9.1924" fill="#555753"/>
 <rect transform="matrix(.82538 0 0 .82538 2396.3 981.07)" x="-2032" y="-764.96" width="113.14" height="9.1924" fill="#555753"/>
 <rect transform="matrix(.82538 0 0 .82538 2396.3 981.07)" x="-2032" y="-743.84" width="113.14" height="9.1924" fill="#555753"/>
 <rect transform="matrix(.82538 0 0 .82538 2396.3 981.07)" x="-2032" y="-722.72" width="113.14" height="9.1924" fill="#555753"/>
 <rect transform="matrix(.82538 0 0 .82538 2396.3 981.07)" x="-2032" y="-701.6" width="113.14" height="9.1924" fill="#555753"/>
 <rect transform="matrix(.82538 0 0 .82538 2396.3 981.07)" x="-2032" y="-680.48" width="113.14" height="9.1924" fill="#555753"/>
 <rect transform="matrix(.82538 0 0 .82538 2396.3 981.07)" x="-2032" y="-659.36" width="113.14" height="9.1924" fill="#555753"/>
 <rect transform="matrix(.82538 0 0 .82538 2396.3 981.07)" x="-2030.6" y="-638.25" width="113.14" height="9.1924" fill="#555753"/>
 <rect transform="matrix(.82538 0 0 .82538 2396.3 981.07)" x="-2032" y="-912.79" width="113.14" height="9.1924" fill="#555753"/>
 <rect transform="matrix(.82538 0 0 .82538 2396.3 981.07)" x="-2032" y="-891.67" width="113.14" height="9.1924" fill="#555753"/>
 <rect transform="matrix(.82538 0 0 .82538 2396.3 981.07)" x="-2032" y="-870.55" width="113.14" height="9.1924" fill="#555753"/>
 <rect transform="matrix(.82538 0 0 .82538 2396.3 981.07)" x="-2032" y="-849.44" width="113.14" height="9.1924" fill="#555753"/>
 <rect transform="matrix(.82538 0 0 .82538 2396.3 981.07)" x="-2032" y="-828.32" width="113.14" height="9.1924" fill="#555753"/>
 <rect transform="matrix(.64148 0 0 .64148 1733 1072)" x="-2643.4" y="-1398.2" width="104.31" height="39.305" fill="url(#w)"/>
 <rect transform="matrix(.64148 0 0 .64148 1663.7 1001.5)" x="-2553.3" y="-1215.1" width="20.577" height="38.11" fill="#eeeeec" stroke="#3465a4" stroke-width="1.559"/>
 <path d="m34.38 223.46h3.2086v6.523l-3.2086-6.523z" fill="#fff"/>
 <path d="m38.225 242.46v3.2085h-11.286l11.286-3.2085z" fill="#d3d7cf"/>
 <rect transform="matrix(.64148 0 0 .64148 1663.7 1001.5)" x="-2553.3" y="-1215.1" width="20.577" height="38.11" fill="#eeeeec" stroke="#3465a4"/>
 <path d="m34.38 223.46h3.2086v6.523l-3.2086-6.523z" fill="#fff"/>
 <path d="m38.225 242.46v3.2085h-11.286l11.286-3.2085z" fill="#d3d7cf"/>
 <rect transform="matrix(.64148 0 0 .64148 1663.7 1025.9)" x="-2553.3" y="-1215.1" width="20.577" height="38.11" fill="#eeeeec" stroke="#3465a4"/>
 <path d="m34.38 247.9h3.2086v6.523l-3.2086-6.523z" fill="#fff"/>
 <path d="m38.225 266.91v3.2085h-11.286l11.286-3.2085z" fill="#d3d7cf"/>
 <rect transform="matrix(.64148 0 0 .64148 1663.7 1050.4)" x="-2553.3" y="-1215.1" width="20.577" height="38.11" fill="#eeeeec" stroke="#3465a4"/>
 <path d="m34.38 272.35h3.2086v6.523l-3.2086-6.523z" fill="#fff"/>
 <path d="m38.225 291.36v3.2085h-11.286l11.286-3.2085z" fill="#d3d7cf"/>
 <rect transform="matrix(.64148 0 0 .64148 1663.7 1074.8)" x="-2553.3" y="-1215.1" width="20.577" height="38.11" fill="#eeeeec" stroke="#3465a4"/>
 <path d="m34.38 296.8h3.2086v6.523l-3.2086-6.523z" fill="#fff"/>
 <path d="m38.225 315.8v3.2085h-11.286l11.286-3.2085z" fill="#d3d7cf"/>
 <rect transform="matrix(.64148 0 0 .64148 1663.7 1099.2)" x="-2553.3" y="-1215.1" width="20.577" height="38.11" fill="#eeeeec" stroke="#3465a4"/>
 <path d="m34.38 321.24h3.2086v6.523l-3.2086-6.523z" fill="#fff"/>
 <path d="m38.225 340.25v3.2085h-11.286l11.286-3.2085z" fill="#d3d7cf"/>
 <rect transform="matrix(.64148 0 0 .64148 1663.7 1123.7)" x="-2553.3" y="-1215.1" width="20.577" height="38.11" fill="#eeeeec" stroke="#3465a4"/>
 <path d="m34.38 345.69h3.2086v6.523l-3.2086-6.523z" fill="#fff"/>
 <path d="m38.225 364.7v3.2085h-11.286l11.286-3.2085z" fill="#d3d7cf"/>
 <rect transform="matrix(.64148 0 0 .64148 1663.7 1148.1)" x="-2553.3" y="-1215.1" width="20.577" height="38.11" fill="#eeeeec" stroke="#3465a4"/>
 <path d="m34.38 370.14h3.2086v6.523l-3.2086-6.523z" fill="#fff"/>
 <path d="m38.225 389.14v3.2085h-11.286l11.286-3.2085z" fill="#d3d7cf"/>
 <rect transform="matrix(.64148 0 0 .64148 1663.7 1172.6)" x="-2553.3" y="-1215.1" width="20.577" height="38.11" fill="#eeeeec" stroke="#3465a4"/>
 <path d="m34.38 394.58h3.2086v6.523l-3.2086-6.523z" fill="#fff"/>
 <path d="m38.225 413.59v3.2085h-11.286l11.286-3.2085z" fill="#d3d7cf"/>
 <rect transform="matrix(.64148 0 0 .64148 1663.7 1197)" x="-2553.3" y="-1215.1" width="20.577" height="38.11" fill="#eeeeec" stroke="#3465a4"/>
 <path d="m34.38 419.03h3.2086v6.523l-3.2086-6.523z" fill="#fff"/>
 <path d="m38.225 438.04v3.2085h-11.286l11.286-3.2085z" fill="#d3d7cf"/>
 <rect transform="matrix(.64148 0 0 .64148 1663.7 1221.5)" x="-2553.3" y="-1215.1" width="20.577" height="38.11" fill="#eeeeec" stroke="#3465a4"/>
 <path d="m34.38 443.48h3.2086v6.523l-3.2086-6.5229z" fill="#fff"/>
 <path d="m38.225 462.49v3.2085h-11.286l11.286-3.2085z" fill="#d3d7cf"/>
 <rect transform="matrix(.64148 0 0 .64148 1676.9 1001.5)" x="-2553.3" y="-1215.1" width="20.577" height="38.11" fill="#eeeeec" stroke="#3465a4"/>
 <path d="m47.58 223.46h3.2086v6.523l-3.2086-6.523z" fill="#fff"/>
 <path d="m51.425 242.46v3.2085h-11.286l11.286-3.2085z" fill="#d3d7cf"/>
 <rect transform="matrix(.64148 0 0 .64148 1676.9 1025.9)" x="-2553.3" y="-1215.1" width="20.577" height="38.11" fill="#eeeeec" stroke="#3465a4"/>
 <path d="m47.58 247.9h3.2086v6.523l-3.2086-6.523z" fill="#fff"/>
 <path d="m51.425 266.91v3.2085h-11.286l11.286-3.2085z" fill="#d3d7cf"/>
 <rect transform="matrix(.64148 0 0 .64148 1676.9 1050.4)" x="-2553.3" y="-1215.1" width="20.577" height="38.11" fill="#eeeeec" stroke="#3465a4"/>
 <path d="m47.58 272.35h3.2086v6.523l-3.2086-6.523z" fill="#fff"/>
 <path d="m51.425 291.36v3.2085h-11.286l11.286-3.2085z" fill="#d3d7cf"/>
 <rect transform="matrix(.64148 0 0 .64148 1676.9 1074.8)" x="-2553.3" y="-1215.1" width="20.577" height="38.11" fill="#eeeeec" stroke="#3465a4"/>
 <path d="m47.58 296.8h3.2086v6.523l-3.2086-6.523z" fill="#fff"/>
 <path d="m51.425 315.8v3.2085h-11.286l11.286-3.2085z" fill="#d3d7cf"/>
 <rect transform="matrix(.64148 0 0 .64148 1676.9 1099.2)" x="-2553.3" y="-1215.1" width="20.577" height="38.11" fill="#eeeeec" stroke="#3465a4"/>
 <path d="m47.58 321.24h3.2086v6.523l-3.2086-6.523z" fill="#fff"/>
 <path d="m51.425 340.25v3.2085h-11.286l11.286-3.2085z" fill="#d3d7cf"/>
 <rect transform="matrix(.64148 0 0 .64148 1676.9 1123.7)" x="-2553.3" y="-1215.1" width="20.577" height="38.11" fill="#eeeeec" stroke="#3465a4"/>
 <path d="m47.58 345.69h3.2086v6.523l-3.2086-6.523z" fill="#fff"/>
 <path d="m51.425 364.7v3.2085h-11.286l11.286-3.2085z" fill="#d3d7cf"/>
 <rect transform="matrix(.64148 0 0 .64148 1676.9 1148.1)" x="-2553.3" y="-1215.1" width="20.577" height="38.11" fill="#eeeeec" stroke="#3465a4"/>
 <path d="m47.58 370.14h3.2086v6.523l-3.2086-6.523z" fill="#fff"/>
 <path d="m51.425 389.14v3.2085h-11.286l11.286-3.2085z" fill="#d3d7cf"/>
 <rect transform="matrix(.64148 0 0 .64148 1676.9 1172.6)" x="-2553.3" y="-1215.1" width="20.577" height="38.11" fill="#eeeeec" stroke="#3465a4"/>
 <path d="m47.58 394.58h3.2086v6.523l-3.2086-6.523z" fill="#fff"/>
 <path d="m51.425 413.59v3.2085h-11.286l11.286-3.2085z" fill="#d3d7cf"/>
 <rect transform="matrix(.64148 0 0 .64148 1676.9 1197)" x="-2553.3" y="-1215.1" width="20.577" height="38.11" fill="#eeeeec" stroke="#3465a4"/>
 <path d="m47.58 419.03h3.2086v6.523l-3.2086-6.523z" fill="#fff"/>
 <path d="m51.425 438.04v3.2085h-11.286l11.286-3.2085z" fill="#d3d7cf"/>
 <rect transform="matrix(.64148 0 0 .64148 1676.9 1221.5)" x="-2553.3" y="-1215.1" width="20.577" height="38.11" fill="#eeeeec" stroke="#3465a4"/>
 <path d="m47.58 443.48h3.2086v6.523l-3.2086-6.5229z" fill="#fff"/>
 <path d="m51.425 462.49v3.2085h-11.286l11.286-3.2085z" fill="#d3d7cf"/>
 <rect transform="matrix(.64148 0 0 .64148 1690.1 1001.5)" x="-2553.3" y="-1215.1" width="20.577" height="38.11" fill="#eeeeec" stroke="#3465a4"/>
 <path d="m60.78 223.46h3.2086v6.523l-3.2086-6.523z" fill="#fff"/>
 <path d="m64.625 242.46v3.2085h-11.286l11.286-3.2085z" fill="#d3d7cf"/>
 <rect transform="matrix(.64148 0 0 .64148 1690.1 1025.9)" x="-2553.3" y="-1215.1" width="20.577" height="38.11" fill="#eeeeec" stroke="#3465a4"/>
 <path d="m60.78 247.9h3.2086v6.523l-3.2086-6.523z" fill="#fff"/>
 <path d="m64.625 266.91v3.2085h-11.286l11.286-3.2085z" fill="#d3d7cf"/>
 <rect transform="matrix(.64148 0 0 .64148 1690.1 1050.4)" x="-2553.3" y="-1215.1" width="20.577" height="38.11" fill="#eeeeec" stroke="#3465a4"/>
 <path d="m60.78 272.35h3.2086v6.523l-3.2086-6.523z" fill="#fff"/>
 <path d="m64.625 291.36v3.2085h-11.286l11.286-3.2085z" fill="#d3d7cf"/>
 <rect transform="matrix(.64148 0 0 .64148 1690.1 1074.8)" x="-2553.3" y="-1215.1" width="20.577" height="38.11" fill="#eeeeec" stroke="#3465a4"/>
 <path d="m60.78 296.8h3.2086v6.523l-3.2086-6.523z" fill="#fff"/>
 <path d="m64.625 315.8v3.2085h-11.286l11.286-3.2085z" fill="#d3d7cf"/>
 <rect transform="matrix(.64148 0 0 .64148 1690.1 1099.2)" x="-2553.3" y="-1215.1" width="20.577" height="38.11" fill="#eeeeec" stroke="#3465a4"/>
 <path d="m60.78 321.24h3.2086v6.523l-3.2086-6.523z" fill="#fff"/>
 <path d="m64.625 340.25v3.2085h-11.286l11.286-3.2085z" fill="#d3d7cf"/>
 <rect transform="matrix(.64148 0 0 .64148 1690.1 1123.7)" x="-2553.3" y="-1215.1" width="20.577" height="38.11" fill="#eeeeec" stroke="#3465a4"/>
 <path d="m60.78 345.69h3.2086v6.523l-3.2086-6.523z" fill="#fff"/>
 <path d="m64.625 364.7v3.2085h-11.286l11.286-3.2085z" fill="#d3d7cf"/>
 <rect transform="matrix(.64148 0 0 .64148 1690.1 1148.1)" x="-2553.3" y="-1215.1" width="20.577" height="38.11" fill="#eeeeec" stroke="#3465a4"/>
 <path d="m60.78 370.14h3.2086v6.523l-3.2086-6.523z" fill="#fff"/>
 <path d="m64.625 389.14v3.2085h-11.286l11.286-3.2085z" fill="#d3d7cf"/>
 <rect transform="matrix(.64148 0 0 .64148 1690.1 1172.6)" x="-2553.3" y="-1215.1" width="20.577" height="38.11" fill="#eeeeec" stroke="#3465a4"/>
 <path d="m60.78 394.58h3.2086v6.523l-3.2086-6.523z" fill="#fff"/>
 <path d="m64.625 413.59v3.2085h-11.286l11.286-3.2085z" fill="#d3d7cf"/>
 <rect transform="matrix(.64148 0 0 .64148 1690.1 1197)" x="-2553.3" y="-1215.1" width="20.577" height="38.11" fill="#eeeeec" stroke="#3465a4"/>
 <path d="m60.78 419.03h3.2086v6.523l-3.2086-6.523z" fill="#fff"/>
 <path d="m64.625 438.04v3.2085h-11.286l11.286-3.2085z" fill="#d3d7cf"/>
 <rect transform="matrix(.64148 0 0 .64148 1690.1 1221.5)" x="-2553.3" y="-1215.1" width="20.577" height="38.11" fill="#eeeeec" stroke="#3465a4"/>
 <path d="m60.78 443.48h3.2086v6.523l-3.2086-6.5229z" fill="#fff"/>
 <path d="m64.625 462.49v3.2085h-11.286l11.286-3.2085z" fill="#d3d7cf"/>
 <rect transform="matrix(.64148 0 0 .64148 1703.3 1001.5)" x="-2553.3" y="-1215.1" width="20.577" height="38.11" fill="#eeeeec" stroke="#3465a4"/>
 <path d="m73.979 223.46h3.2086v6.523l-3.2086-6.523z" fill="#fff"/>
 <path d="m77.824 242.46v3.2085h-11.286l11.286-3.2085z" fill="#d3d7cf"/>
 <rect transform="matrix(.64148 0 0 .64148 1703.3 1025.9)" x="-2553.3" y="-1215.1" width="20.577" height="38.11" fill="#eeeeec" stroke="#3465a4"/>
 <path d="m73.979 247.9h3.2086v6.523l-3.2086-6.523z" fill="#fff"/>
 <path d="m77.824 266.91v3.2085h-11.286l11.286-3.2085z" fill="#d3d7cf"/>
 <rect transform="matrix(.64148 0 0 .64148 1703.3 1050.4)" x="-2553.3" y="-1215.1" width="20.577" height="38.11" fill="#eeeeec" stroke="#3465a4"/>
 <path d="m73.979 272.35h3.2086v6.523l-3.2086-6.523z" fill="#fff"/>
 <path d="m77.824 291.36v3.2085h-11.286l11.286-3.2085z" fill="#d3d7cf"/>
 <rect transform="matrix(.64148 0 0 .64148 1703.3 1074.8)" x="-2553.3" y="-1215.1" width="20.577" height="38.11" fill="#eeeeec" stroke="#3465a4"/>
 <path d="m73.979 296.8h3.2086v6.523l-3.2086-6.523z" fill="#fff"/>
 <path d="m77.824 315.8v3.2085h-11.286l11.286-3.2085z" fill="#d3d7cf"/>
 <rect transform="matrix(.64148 0 0 .64148 1703.3 1099.2)" x="-2553.3" y="-1215.1" width="20.577" height="38.11" fill="#eeeeec" stroke="#3465a4"/>
 <path d="m73.979 321.24h3.2086v6.523l-3.2086-6.523z" fill="#fff"/>
 <path d="m77.824 340.25v3.2085h-11.286l11.286-3.2085z" fill="#d3d7cf"/>
 <rect transform="matrix(.64148 0 0 .64148 1703.3 1123.7)" x="-2553.3" y="-1215.1" width="20.577" height="38.11" fill="#eeeeec" stroke="#3465a4"/>
 <path d="m73.979 345.69h3.2086v6.523l-3.2086-6.523z" fill="#fff"/>
 <path d="m77.824 364.7v3.2085h-11.286l11.286-3.2085z" fill="#d3d7cf"/>
 <rect transform="matrix(.64148 0 0 .64148 1703.3 1148.1)" x="-2553.3" y="-1215.1" width="20.577" height="38.11" fill="#eeeeec" stroke="#3465a4"/>
 <path d="m73.979 370.14h3.2086v6.523l-3.2086-6.523z" fill="#fff"/>
 <path d="m77.824 389.14v3.2085h-11.286l11.286-3.2085z" fill="#d3d7cf"/>
 <rect transform="matrix(.64148 0 0 .64148 1703.3 1172.6)" x="-2553.3" y="-1215.1" width="20.577" height="38.11" fill="#eeeeec" stroke="#3465a4"/>
 <path d="m73.979 394.58h3.2086v6.523l-3.2086-6.523z" fill="#fff"/>
 <path d="m77.824 413.59v3.2085h-11.286l11.286-3.2085z" fill="#d3d7cf"/>
 <rect transform="matrix(.64148 0 0 .64148 1703.3 1197)" x="-2553.3" y="-1215.1" width="20.577" height="38.11" fill="#eeeeec" stroke="#3465a4"/>
 <path d="m73.979 419.03h3.2086v6.523l-3.2086-6.523z" fill="#fff"/>
 <path d="m77.824 438.04v3.2085h-11.286l11.286-3.2085z" fill="#d3d7cf"/>
 <rect transform="matrix(.64148 0 0 .64148 1703.3 1221.5)" x="-2553.3" y="-1215.1" width="20.577" height="38.11" fill="#eeeeec" stroke="#3465a4"/>
 <path d="m73.979 443.48h3.2086v6.523l-3.2086-6.5229z" fill="#fff"/>
 <path d="m77.824 462.49v3.2085h-11.286l11.286-3.2085z" fill="#d3d7cf"/>
 <rect transform="matrix(.64148 0 0 .64148 1716.5 1001.5)" x="-2553.3" y="-1215.1" width="20.577" height="38.11" fill="#eeeeec" stroke="#3465a4"/>
 <path d="m87.179 223.46h3.2086v6.523l-3.2086-6.523z" fill="#fff"/>
 <path d="m91.024 242.46v3.2085h-11.286l11.286-3.2085z" fill="#d3d7cf"/>
 <rect transform="matrix(.64148 0 0 .64148 1716.5 1025.9)" x="-2553.3" y="-1215.1" width="20.577" height="38.11" fill="#eeeeec" stroke="#3465a4"/>
 <path d="m87.179 247.9h3.2086v6.523l-3.2086-6.523z" fill="#fff"/>
 <path d="m91.024 266.91v3.2085h-11.286l11.286-3.2085z" fill="#d3d7cf"/>
 <rect transform="matrix(.64148 0 0 .64148 1716.5 1050.4)" x="-2553.3" y="-1215.1" width="20.577" height="38.11" fill="#eeeeec" stroke="#3465a4"/>
 <path d="m87.179 272.35h3.2086v6.523l-3.2086-6.523z" fill="#fff"/>
 <path d="m91.024 291.36v3.2085h-11.286l11.286-3.2085z" fill="#d3d7cf"/>
 <rect transform="matrix(.64148 0 0 .64148 1716.5 1074.8)" x="-2553.3" y="-1215.1" width="20.577" height="38.11" fill="#eeeeec" stroke="#3465a4"/>
 <path d="m87.179 296.8h3.2086v6.523l-3.2086-6.523z" fill="#fff"/>
 <path d="m91.024 315.8v3.2085h-11.286l11.286-3.2085z" fill="#d3d7cf"/>
 <rect transform="matrix(.64148 0 0 .64148 1716.5 1099.2)" x="-2553.3" y="-1215.1" width="20.577" height="38.11" fill="#eeeeec" stroke="#3465a4"/>
 <path d="m87.179 321.24h3.2086v6.523l-3.2086-6.523z" fill="#fff"/>
 <path d="m91.024 340.25v3.2085h-11.286l11.286-3.2085z" fill="#d3d7cf"/>
 <rect transform="matrix(.64148 0 0 .64148 1716.5 1123.7)" x="-2553.3" y="-1215.1" width="20.577" height="38.11" fill="#eeeeec" stroke="#3465a4"/>
 <path d="m87.179 345.69h3.2086v6.523l-3.2086-6.523z" fill="#fff"/>
 <path d="m91.024 364.7v3.2085h-11.286l11.286-3.2085z" fill="#d3d7cf"/>
 <rect transform="matrix(.64148 0 0 .64148 1716.5 1148.1)" x="-2553.3" y="-1215.1" width="20.577" height="38.11" fill="#eeeeec" stroke="#3465a4"/>
 <path d="m87.179 370.14h3.2086v6.523l-3.2086-6.523z" fill="#fff"/>
 <path d="m91.024 389.14v3.2085h-11.286l11.286-3.2085z" fill="#d3d7cf"/>
 <rect transform="matrix(.64148 0 0 .64148 1716.5 1172.6)" x="-2553.3" y="-1215.1" width="20.577" height="38.11" fill="#eeeeec" stroke="#3465a4"/>
 <path d="m87.179 394.58h3.2086v6.523l-3.2086-6.523z" fill="#fff"/>
 <path d="m91.024 413.59v3.2085h-11.286l11.286-3.2085z" fill="#d3d7cf"/>
 <rect transform="matrix(.64148 0 0 .64148 1716.5 1197)" x="-2553.3" y="-1215.1" width="20.577" height="38.11" fill="#eeeeec" stroke="#3465a4"/>
 <path d="m87.179 419.03h3.2086v6.523l-3.2086-6.523z" fill="#fff"/>
 <path d="m91.024 438.04v3.2085h-11.286l11.286-3.2085z" fill="#d3d7cf"/>
 <rect transform="matrix(.64148 0 0 .64148 1716.5 1221.5)" x="-2553.3" y="-1215.1" width="20.577" height="38.11" fill="#eeeeec" stroke="#3465a4"/>
 <path d="m87.179 443.48h3.2086v6.523l-3.2086-6.5229z" fill="#fff"/>
 <path d="m91.024 462.49v3.2085h-11.286l11.286-3.2085z" fill="#d3d7cf"/>
 <rect transform="matrix(.64148 0 0 .64148 1729.7 1001.5)" x="-2553.3" y="-1215.1" width="20.577" height="38.11" fill="#eeeeec" stroke="#3465a4"/>
 <path d="m100.38 223.46h3.2086v6.523l-3.2086-6.523z" fill="#fff"/>
 <path d="m104.22 242.46v3.2085h-11.286l11.286-3.2085z" fill="#d3d7cf"/>
 <rect transform="matrix(.64148 0 0 .64148 1729.7 1025.9)" x="-2553.3" y="-1215.1" width="20.577" height="38.11" fill="#eeeeec" stroke="#3465a4"/>
 <path d="m100.38 247.9h3.2086v6.523l-3.2086-6.523z" fill="#fff"/>
 <path d="m104.22 266.91v3.2085h-11.286l11.286-3.2085z" fill="#d3d7cf"/>
 <rect transform="matrix(.64148 0 0 .64148 1729.7 1050.4)" x="-2553.3" y="-1215.1" width="20.577" height="38.11" fill="#eeeeec" stroke="#3465a4"/>
 <path d="m100.38 272.35h3.2086v6.523l-3.2086-6.523z" fill="#fff"/>
 <path d="m104.22 291.36v3.2085h-11.286l11.286-3.2085z" fill="#d3d7cf"/>
 <rect transform="matrix(.64148 0 0 .64148 1729.7 1074.8)" x="-2553.3" y="-1215.1" width="20.577" height="38.11" fill="#eeeeec" stroke="#3465a4"/>
 <path d="m100.38 296.8h3.2086v6.523l-3.2086-6.523z" fill="#fff"/>
 <path d="m104.22 315.8v3.2085h-11.286l11.286-3.2085z" fill="#d3d7cf"/>
 <rect transform="matrix(.64148 0 0 .64148 1729.7 1099.2)" x="-2553.3" y="-1215.1" width="20.577" height="38.11" fill="#eeeeec" stroke="#3465a4"/>
 <path d="m100.38 321.24h3.2086v6.523l-3.2086-6.523z" fill="#fff"/>
 <path d="m104.22 340.25v3.2085h-11.286l11.286-3.2085z" fill="#d3d7cf"/>
 <rect transform="matrix(.64148 0 0 .64148 1729.7 1123.7)" x="-2553.3" y="-1215.1" width="20.577" height="38.11" fill="#eeeeec" stroke="#3465a4"/>
 <path d="m100.38 345.69h3.2086v6.523l-3.2086-6.523z" fill="#fff"/>
 <path d="m104.22 364.7v3.2085h-11.286l11.286-3.2085z" fill="#d3d7cf"/>
 <rect transform="matrix(.64148 0 0 .64148 1729.7 1148.1)" x="-2553.3" y="-1215.1" width="20.577" height="38.11" fill="#eeeeec" stroke="#3465a4"/>
 <path d="m100.38 370.14h3.2086v6.523l-3.2086-6.523z" fill="#fff"/>
 <path d="m104.22 389.14v3.2085h-11.286l11.286-3.2085z" fill="#d3d7cf"/>
 <rect transform="matrix(.64148 0 0 .64148 1729.7 1172.6)" x="-2553.3" y="-1215.1" width="20.577" height="38.11" fill="#eeeeec" stroke="#3465a4"/>
 <path d="m100.38 394.58h3.2086v6.523l-3.2086-6.523z" fill="#fff"/>
 <path d="m104.22 413.59v3.2085h-11.286l11.286-3.2085z" fill="#d3d7cf"/>
 <rect transform="matrix(.64148 0 0 .64148 1729.7 1197)" x="-2553.3" y="-1215.1" width="20.577" height="38.11" fill="#eeeeec" stroke="#3465a4"/>
 <path d="m100.38 419.03h3.2086v6.523l-3.2086-6.523z" fill="#fff"/>
 <path d="m104.22 438.04v3.2085h-11.286l11.286-3.2085z" fill="#d3d7cf"/>
 <rect transform="matrix(.64148 0 0 .64148 1729.7 1221.5)" x="-2553.3" y="-1215.1" width="20.577" height="38.11" fill="#eeeeec" stroke="#3465a4"/>
 <path d="m100.38 443.48h3.2086v6.523l-3.2086-6.5229z" fill="#fff"/>
 <path d="m104.22 462.49v3.2085h-11.286l11.286-3.2085z" fill="#d3d7cf"/>
 <rect transform="matrix(.64148 0 0 .64148 1742.9 1001.5)" x="-2553.3" y="-1215.1" width="20.577" height="38.11" fill="#eeeeec" stroke="#3465a4"/>
 <path d="m113.58 223.46h3.2086v6.523l-3.2086-6.523z" fill="#fff"/>
 <path d="m117.42 242.46v3.2085h-11.286l11.286-3.2085z" fill="#d3d7cf"/>
 <rect transform="matrix(.64148 0 0 .64148 1742.9 1025.9)" x="-2553.3" y="-1215.1" width="20.577" height="38.11" fill="#eeeeec" stroke="#3465a4"/>
 <path d="m113.58 247.9h3.2086v6.523l-3.2086-6.523z" fill="#fff"/>
 <path d="m117.42 266.91v3.2085h-11.286l11.286-3.2085z" fill="#d3d7cf"/>
 <rect transform="matrix(.64148 0 0 .64148 1742.9 1050.4)" x="-2553.3" y="-1215.1" width="20.577" height="38.11" fill="#eeeeec" stroke="#3465a4"/>
 <path d="m113.58 272.35h3.2086v6.523l-3.2086-6.523z" fill="#fff"/>
 <path d="m117.42 291.36v3.2085h-11.286l11.286-3.2085z" fill="#d3d7cf"/>
 <rect transform="matrix(.64148 0 0 .64148 1742.9 1074.8)" x="-2553.3" y="-1215.1" width="20.577" height="38.11" fill="#eeeeec" stroke="#3465a4"/>
 <path d="m113.58 296.8h3.2086v6.523l-3.2086-6.523z" fill="#fff"/>
 <path d="m117.42 315.8v3.2085h-11.286l11.286-3.2085z" fill="#d3d7cf"/>
 <rect transform="matrix(.64148 0 0 .64148 1742.9 1099.2)" x="-2553.3" y="-1215.1" width="20.577" height="38.11" fill="#eeeeec" stroke="#3465a4"/>
 <path d="m113.58 321.24h3.2086v6.523l-3.2086-6.523z" fill="#fff"/>
 <path d="m117.42 340.25v3.2085h-11.286l11.286-3.2085z" fill="#d3d7cf"/>
 <rect transform="matrix(.64148 0 0 .64148 1742.9 1123.7)" x="-2553.3" y="-1215.1" width="20.577" height="38.11" fill="#eeeeec" stroke="#3465a4"/>
 <path d="m113.58 345.69h3.2086v6.523l-3.2086-6.523z" fill="#fff"/>
 <path d="m117.42 364.7v3.2085h-11.286l11.286-3.2085z" fill="#d3d7cf"/>
 <rect transform="matrix(.64148 0 0 .64148 1742.9 1148.1)" x="-2553.3" y="-1215.1" width="20.577" height="38.11" fill="#eeeeec" stroke="#3465a4"/>
 <path d="m113.58 370.14h3.2086v6.523l-3.2086-6.523z" fill="#fff"/>
 <path d="m117.42 389.14v3.2085h-11.286l11.286-3.2085z" fill="#d3d7cf"/>
 <rect transform="matrix(.64148 0 0 .64148 1742.9 1172.6)" x="-2553.3" y="-1215.1" width="20.577" height="38.11" fill="#eeeeec" stroke="#3465a4"/>
 <path d="m113.58 394.58h3.2086v6.523l-3.2086-6.523z" fill="#fff"/>
 <path d="m117.42 413.59v3.2085h-11.286l11.286-3.2085z" fill="#d3d7cf"/>
 <rect transform="matrix(.64148 0 0 .64148 1742.9 1197)" x="-2553.3" y="-1215.1" width="20.577" height="38.11" fill="#eeeeec" stroke="#3465a4"/>
 <path d="m113.58 419.03h3.2086v6.523l-3.2086-6.523z" fill="#fff"/>
 <path d="m117.42 438.04v3.2085h-11.286l11.286-3.2085z" fill="#d3d7cf"/>
 <rect transform="matrix(.64148 0 0 .64148 1742.9 1221.5)" x="-2553.3" y="-1215.1" width="20.577" height="38.11" fill="#eeeeec" stroke="#3465a4"/>
 <path d="m113.58 443.48h3.2086v6.523l-3.2086-6.5229z" fill="#fff"/>
 <path d="m117.42 462.49v3.2085h-11.286l11.286-3.2085z" fill="#d3d7cf"/>
 <rect transform="matrix(.64148 0 0 .64148 1733 1072)" x="-2661.4" y="-1364.2" width="144.31" height="39.305" fill="url(#v)"/>
 <rect transform="matrix(.38242 0 0 .38242 997.42 1466.7)" x="-2793" y="-2996.8" width="310.89" height="382.24" fill="url(#aa)"/>
 <g fill="#555753">
  <rect transform="matrix(.89465 0 0 .38242 1677.5 1161.5)" x="-1944.2" y="-2184.3" width="113.14" height="9.1924"/>
  <rect transform="matrix(.89465 0 0 .38242 1677.5 1161.5)" x="-1944.2" y="-2163.2" width="113.14" height="9.1924"/>
  <rect transform="matrix(.89465 0 0 .38242 1677.5 1161.5)" x="-1944.2" y="-2036.5" width="113.14" height="9.1924"/>
  <rect transform="matrix(.89465 0 0 .38242 1677.5 1161.5)" x="-1944.2" y="-2015.3" width="113.14" height="9.1924"/>
  <rect transform="matrix(.89465 0 0 .38242 1677.5 1161.5)" x="-1944.2" y="-1994.2" width="113.14" height="9.1924"/>
  <rect transform="matrix(.89465 0 0 .38242 1677.5 1161.5)" x="-1944.2" y="-1973.1" width="113.14" height="9.1924"/>
  <rect transform="matrix(.89465 0 0 .38242 1677.5 1161.5)" x="-1944.2" y="-1952" width="113.14" height="9.1924"/>
  <rect transform="matrix(.89465 0 0 .38242 1677.5 1161.5)" x="-1944.2" y="-1930.9" width="113.14" height="9.1924"/>
  <rect transform="matrix(.89465 0 0 .38242 1677.5 1161.5)" x="-1944.2" y="-1909.7" width="113.14" height="9.1924"/>
  <rect transform="matrix(.89465 0 0 .38242 1677.5 1161.5)" x="-1944.2" y="-1888.6" width="113.14" height="9.1924"/>
  <rect transform="matrix(.89465 0 0 .38242 1677.5 1161.5)" x="-1944.2" y="-1867.5" width="113.14" height="9.1924"/>
  <rect transform="matrix(.89465 0 0 .38242 1677.5 1161.5)" x="-1944.2" y="-2142" width="113.14" height="9.1924"/>
  <rect transform="matrix(.89465 0 0 .38242 1677.5 1161.5)" x="-1944.2" y="-2120.9" width="113.14" height="9.1924"/>
  <rect transform="matrix(.89465 0 0 .38242 1677.5 1161.5)" x="-1944.2" y="-2099.8" width="113.14" height="9.1924"/>
  <rect transform="matrix(.89465 0 0 .38242 1677.5 1161.5)" x="-1944.2" y="-2078.7" width="113.14" height="9.1924"/>
  <rect transform="matrix(.89465 0 0 .38242 1677.5 1161.5)" x="-1944.2" y="-2057.6" width="113.14" height="9.1924"/>
 </g>
 <g fill="#8a9da5">
  <rect transform="matrix(.89465 0 0 .38242 1678.5 1161.5)" x="-1928.9" y="-2198.2" width="2.4003" height="346"/>
  <rect transform="matrix(.89465 0 0 .38242 1678.5 1161.5)" x="-1850.9" y="-2193.6" width="2.4003" height="346"/>
  <rect transform="matrix(.89465 0 0 .38242 1678.5 1161.5)" x="-1902.9" y="-2196.1" width="2.4003" height="346"/>
  <rect transform="matrix(.89465 0 0 .38242 1678.5 1161.5)" x="-1876.9" y="-2197.5" width="2.4003" height="346"/>
 </g>
 <g fill="#555753">
  <rect transform="matrix(.89465 0 0 .38242 1678 1161.5)" x="-1839.3" y="-1846.6" width="7.2542" height="28.991"/>
  <rect transform="matrix(.89465 0 0 .38242 1678 1161.5)" x="-1891.8" y="-1846.6" width="7.2542" height="28.991"/>
  <rect transform="matrix(.89465 0 0 .38242 1678 1161.5)" x="-1900.6" y="-1846.6" width="7.2542" height="28.991"/>
  <rect transform="matrix(.89465 0 0 .38242 1678 1161.5)" x="-1909.4" y="-1846.6" width="7.2542" height="28.991"/>
  <rect transform="matrix(.89465 0 0 .38242 1678 1161.5)" x="-1918.1" y="-1846.6" width="7.2542" height="28.991"/>
  <rect transform="matrix(.89465 0 0 .38242 1678 1161.5)" x="-1926.9" y="-1846.6" width="7.2542" height="28.991"/>
  <rect transform="matrix(.89465 0 0 .38242 1678 1161.5)" x="-1935.7" y="-1846.6" width="7.2542" height="28.991"/>
  <rect transform="matrix(.89465 0 0 .38242 1678 1161.5)" x="-1944.4" y="-1846.6" width="7.2542" height="28.991"/>
  <rect transform="matrix(.89465 0 0 .38242 1678 1161.5)" x="-1953.2" y="-1846.6" width="7.2542" height="28.991"/>
  <rect transform="matrix(.89465 0 0 .38242 1678 1161.5)" x="-1830.5" y="-1846.6" width="7.2542" height="28.991"/>
  <rect transform="matrix(.89465 0 0 .38242 1678 1161.5)" x="-1848" y="-1846.6" width="7.2542" height="28.991"/>
  <rect transform="matrix(.89465 0 0 .38242 1678 1161.5)" x="-1856.8" y="-1846.6" width="7.2542" height="28.991"/>
  <rect transform="matrix(.89465 0 0 .38242 1678 1161.5)" x="-1865.5" y="-1846.6" width="7.2542" height="28.991"/>
  <rect transform="matrix(.89465 0 0 .38242 1678 1161.5)" x="-1874.3" y="-1846.6" width="7.2542" height="28.991"/>
  <rect transform="matrix(.89465 0 0 .38242 1678 1161.5)" x="-1883.1" y="-1846.6" width="7.2542" height="28.991"/>
 </g>
 <path d="m-124.26 34.682c-19.727 1.3937-26.351 30.202-12.088 42.283 4.5626 10.359-11.263 21.602-19.497 12.785-14.002-5.0444-31.067 2.0827-37.451 15.497-15.618-8.3351-34.484 6.2977-35.331 22.75-2.7479 16.672 9.6946 36.94 28.022 35.777 11.479 0.87451 17.729-17.442 29.88-6.8882 12.846 4.4901 24.865-13.304 34.989-2.3849 10.968 5.6141 25.472 4.2542 34.564-4.3131 12.676 7.6314 29.63-6.978 40.27 6.4258 19.266 12.768 49.231 7.7894 61.188-12.575 10.312-1.3466 16.098 16.127 28.891 12 10.211 2.9674 19.694-11.382 25.691-8.9134 11.923 11.79 34.598 4.41 37.811-11.96 5.0019-15.686-8.8337-35.451-25.984-32.533-14.765 8.5627-18.838-18.85-34.726-15.253-3.9998-5.0557 5.996-16.617-0.42969-24.432-4.0522-12.151-19.266-19.254-30.604-12.513-5.4038 5.8209-10.848 19.035-19.128 7.9922-11.994-8.6712-28.669-1.1638-39.417-3.4935-12.336-11.514-31.371-15.892-47.195-9.5074-3.9371-6.6719-11.57-11.422-19.455-10.743z" fill="url(#t)"/>
 <path d="m-97.013 70.228c-11.915 0.83899-15.764 20.338-7.078 28.607 2.814 7.049-6.691 14.588-11.715 8.564-8.49-3.496-18.767 1.2451-22.553 10.307-9.484-5.736-20.809 4.084-21.232 15.235-1.571 11.29 6.058 25.1 17.129 24.41 6.943 0.65991 10.622-11.73 18.023-4.51 7.788 3.12 14.957-8.8901 21.135-1.43 6.66 3.87 15.419 3.02 20.868-2.74 7.703 5.25 17.871-4.57 24.374 4.58 11.714 8.76 29.798 5.55 36.915-8.2 6.226-0.85998 9.817 11.02 17.527 8.29 6.188 2.07 11.842-7.61 15.48-5.9 7.27 8.0599 20.935 3.1699 22.789-7.91 2.939-10.61-5.53-24.085-15.88-22.199-8.878 5.727-11.487-12.883-21.071-10.529-2.445-3.45 3.535-11.236-0.39105-16.57-2.515-8.261-11.749-13.159-18.565-8.649-3.235 3.918-6.454 12.849-11.518 5.316-7.296-5.944-17.335-0.94299-23.843-2.581-7.519-7.874-19.047-10.945-28.577-6.701-2.416-4.545-7.054-7.808-11.817-7.389v-9.77e-4z" fill="url(#s)"/>
 <path d="m1.9835 398.51c-12.808 7.3205-21.041 18.703-21.041 31.488 0 14.891 11.161 27.882 27.723 34.766 12.808-7.3205 21.041-18.703 21.041-31.488 0-14.891-11.161-27.882-27.723-34.766z" fill="#5c8c2e"/>
 <path d="m5.9049 417.12l8.1274 83.016h-8.708l0.5805-83.016z" fill="#8f5902"/>
 <path d="m23.877 431.84l-15.046 20.882-1.9326-1.8387 16.979-19.044z" fill="#8f5902"/>
 <path d="m-9.7269 429.17l15.592 16.162 2.0026-1.423-17.594-14.738z" fill="#8f5902"/>
 <path d="m-63.232 396.83c12.808 6.6514 21.042 16.994 21.042 28.61 0 13.53-11.161 25.334-27.723 31.588-12.808-6.6514-21.041-16.994-21.041-28.61 0-13.53 11.161-25.334 27.723-31.588z" fill="#70781d"/>
 <path d="m-67.154 413.74l-8.1274 75.429h8.708l-0.5805-75.429z" fill="#8f5902"/>
 <path d="m-85.126 427.11l15.046 18.974 1.9326-1.6707-16.979-17.303z" fill="#8f5902"/>
 <path d="m-51.522 424.69l-15.592 14.684-2.0026-1.293 17.594-13.392z" fill="#8f5902"/>
 <path d="m641.33 408.83c12.808 6.6514 18.719 34.41 18.719 46.026 0 13.53-8.8391 7.9182-25.401 14.172-12.808-6.6514-22.783-1.9002-22.783-13.516 0-13.53 12.903-40.428 29.465-46.682z" fill="#9cb13c"/>
 <path d="m637.41 425.74l-6.9664 60.335h8.708l-1.7416-60.335z" fill="#8f5902"/>
 <path d="m619.44 439.11l15.046 18.974 1.9325-1.6707-16.979-17.303z" fill="#8f5902"/>
 <path d="m653.04 436.69l-15.592 14.684-2.0027-1.293 17.594-13.392z" fill="#8f5902"/>
 <path d="m88.626 445.29l-6.9664 60.335h8.708l-1.7416-60.335z" fill="#8f5902"/>
 <path d="m92.548 428.38c12.808 6.6515 18.719 34.41 18.719 46.026 0 13.53-8.8392 7.9182-25.401 14.172-12.808-6.6514-22.783-1.9002-22.783-13.516 0-13.53 12.903-40.428 29.465-46.682z" fill="url(#d)"/>
 <path d="m93.274 399.23c10.626 5.5181 15.53 28.547 15.53 38.184 0 11.225-7.3331 6.569-21.073 11.757-10.626-5.5181-18.901-1.5765-18.901-11.213 0-11.225 10.704-33.54 24.444-38.728z" fill="url(#c)"/>
 <path d="m94.137 375.62c7.7889 4.0448 11.383 20.925 11.383 27.989 0 8.2278-5.3752 4.8151-15.447 8.6182-7.7889-4.0447-13.855-1.1555-13.855-8.2191 0-8.2279 7.8464-24.585 17.918-28.388z" fill="url(#b)"/>
 <path d="m207.38 419.99c12.808 6.6514 18.719 34.41 18.719 46.026 0 13.53-8.8392 7.9182-25.401 14.172-12.808-6.6514-22.783-1.9002-22.783-13.516 0-13.53 12.903-40.428 29.465-46.682z" fill="#448552"/>
 <path d="m203.46 436.9l-6.9664 60.335h8.708l-1.7416-60.335z" fill="#8f5902"/>
 <path d="m185.49 450.27l15.046 18.974 1.9325-1.6707-16.979-17.303z" fill="#8f5902"/>
 <path d="m219.09 447.85l-15.592 14.684-2.0027-1.293 17.594-13.392z" fill="#8f5902"/>
 <path d="m290.58 398.61c-20.359 0-34.542 13.031-34.542 24.092s20.568 14.223 40.927 14.223c13.727-4.418 16.518 11.176 29.897 12.191 11.222 0 20.318-5.4582 20.318-12.191 1.1417-11.413-17.611-8.7273-17.416-14.223 0-11.061-18.827-24.092-39.186-24.092z" fill="#d7e0b1"/>
 <path d="m294.28 408.48c-15.679 0-26.601 10.035-26.601 18.554 0 8.5185 15.84 10.953 31.519 10.953 10.572-3.4023 12.721 8.6065 23.024 9.3886 8.642 0 15.648-4.2034 15.648-9.3886 0.87915-8.789-13.563-6.721-13.412-10.953 0-8.5185-14.499-18.554-30.178-18.554z" fill="#bfcd82"/>
 <path d="m290.29 413.12l8.1274 88.241h-8.708l0.5805-88.241z" fill="#8f5902"/>
 <path d="m319.87 433.94l-27.237 15.948-1.352-6.1927 28.589-9.755z" fill="#8f5902"/>
 <path d="m274.66 427.5l15.882 19.935 1.7124-5.1965-17.594-14.738z" fill="#8f5902"/>
 <path d="m808.47 408.35c20.359 0 34.542 10.38 34.542 19.192 0 8.8116-20.568 11.33-40.927 11.33-13.727-3.5194-16.518 8.9026-29.897 9.7116-11.222 0-20.319-4.348-20.319-9.7116-1.1416-9.0914 17.611-6.9522 17.416-11.33 0-8.8116 18.826-19.192 39.186-19.192z" fill="#d7e0b1"/>
 <path d="m804.77 416.21c15.679 0 26.601 7.9941 26.601 14.78s-15.84 8.7255-31.519 8.7255c-10.572-2.7104-12.721 6.856-23.024 7.4791-8.642 0-15.648-3.3485-15.648-7.4791-0.87921-7.0014 13.563-5.354 13.412-8.7255 0-6.786 14.499-14.78 30.178-14.78z" fill="#bfcd82"/>
 <path d="m808.76 419.91l-8.1274 70.294h8.708l-0.5806-70.294z" fill="#8f5902"/>
 <path d="m779.18 436.49l27.237 12.704 1.3521-4.9332-28.589-7.771z" fill="#8f5902"/>
 <path d="m824.39 431.36l-15.882 15.88-1.7124-4.1396 17.594-11.741z" fill="#8f5902"/>
 <path d="m422.55 434.65l9.3165 60.335h-11.646l2.3291-60.335z" fill="#8f5902"/>
 <path d="m417.3 417.73c-17.129 6.6515-25.034 34.41-25.034 46.026 0 13.53 11.821 7.9182 33.97 14.172 17.129-6.6514 30.469-1.9002 30.469-13.516 0-13.53-17.256-40.428-39.405-46.682z" fill="url(#d)"/>
 <path d="m416.33 388.58c-14.211 5.5181-20.769 28.547-20.769 38.184 0 11.225 9.8068 6.569 28.182 11.757 14.211-5.5181 25.277-1.5765 25.277-11.213 0-11.225-14.316-33.54-32.691-38.728z" fill="url(#c)"/>
 <path d="m415.18 364.97c-10.417 4.0448-15.224 20.925-15.224 27.989 0 8.2278 7.1884 4.8151 20.657 8.6182 10.417-4.0447 18.528-1.1555 18.528-8.2191 0-8.2279-10.493-24.585-23.962-28.388z" fill="url(#b)"/>
 <path d="m-147.45 442.65l9.3165 60.335h-11.646l2.3291-60.335z" fill="#8f5902"/>
 <path d="m-152.7 425.73c-17.129 6.6515-25.034 34.41-25.034 46.026 0 13.53 11.821 7.9182 33.97 14.172 17.129-6.6513 30.469-1.9002 30.469-13.516 0-13.53-17.256-40.428-39.405-46.682z" fill="url(#d)"/>
 <path d="m-153.67 396.58c-14.211 5.5181-20.769 28.547-20.769 38.184 0 11.225 9.8069 6.569 28.182 11.757 14.211-5.5181 25.277-1.5765 25.277-11.213 0-11.225-14.316-33.54-32.69-38.728z" fill="url(#c)"/>
 <path d="m-154.82 372.97c-10.417 4.0448-15.224 20.925-15.224 27.989 0 8.2278 7.1885 4.8151 20.658 8.6182 10.417-4.0447 18.528-1.1555 18.528-8.2191 0-8.2279-10.493-24.585-23.962-28.388z" fill="url(#b)"/>
 <path d="m147.91 418.83c14.798 7.6847 21.627 39.756 21.627 53.176 0 15.632-10.212 9.1484-29.347 16.374-14.798-7.6847-26.322-2.1954-26.322-15.616 0-15.632 14.907-46.708 34.042-53.934z" fill="#9cb13c"/>
 <path d="m143.38 438.37l-8.0486 69.708h10.061l-2.0121-69.708z" fill="#8f5902"/>
 <path d="m122.61 453.82l17.384 21.921 2.2328-1.9303-19.616-19.991z" fill="#8f5902"/>
 <path d="m161.44 451.02l-18.014 16.966-2.3137-1.4939 20.328-15.472z" fill="#8f5902"/>
 <path d="m502.77 392.83c12.808 6.6514 21.041 16.994 21.041 28.61 0 13.53-11.161 25.334-27.723 31.588-12.808-6.6514-21.042-16.994-21.042-28.61 0-13.53 11.161-25.334 27.723-31.588z" fill="#70781d"/>
 <path d="m498.85 409.74l-8.1274 75.429h8.708l-0.5805-75.429z" fill="#8f5902"/>
 <path d="m480.87 423.11l15.046 18.974 1.9326-1.6707-16.979-17.303z" fill="#8f5902"/>
 <path d="m514.48 420.69l-15.592 14.684-2.0026-1.293 17.594-13.392z" fill="#8f5902"/>
 <path d="m561.39 394.81c25.717 0 43.632 13.112 43.632 24.243s-25.981 14.312-51.698 14.312c-17.34-4.4457-20.865 11.246-37.766 12.268-14.175 0-25.666-5.4923-25.666-12.268-1.442-11.484 22.246-8.7819 21.999-14.312 0-11.131 23.781-24.243 49.499-24.243z" fill="#d7e0b1"/>
 <path d="m556.71 404.74c19.805 0 33.602 10.098 33.602 18.67 0 8.5718-20.008 11.022-39.814 11.022-13.354-3.4237-16.069 8.6604-29.084 9.4474-10.916 0-19.766-4.2297-19.766-9.4474-1.1105-8.844 17.132-6.7631 16.942-11.022 0-8.5718 18.314-18.67 38.12-18.67z" fill="#bfcd82"/>
 <path d="m561.75 409.41l-10.266 88.793h11l-0.7333-88.793z" fill="#8f5902"/>
 <path d="m524.38 430.35l34.406 16.048 1.7078-6.2314-36.114-9.8161z" fill="#8f5902"/>
 <path d="m581.5 423.87l-20.062 20.06-2.163-5.229 22.225-14.831z" fill="#8f5902"/>
 <path d="m355.84 437.99l6.0201 38.987h-7.5251l1.505-38.987z" fill="#8f5902"/>
 <path d="m352.45 427.06c-11.069 4.298-16.177 22.235-16.177 29.741 0 8.743 7.6384 5.1166 21.951 9.1577 11.069-4.298 19.688-1.2279 19.688-8.7337 0-8.743-11.15-26.124-25.462-30.165z" fill="url(#d)"/>
 <path d="m351.82 408.23c-9.1827 3.5656-13.42 18.446-13.42 24.673 0 7.2532 6.337 4.2448 18.21 7.5974 9.1827-3.5656 16.334-1.0187 16.334-7.2456 0-7.2532-9.2503-21.672-21.124-25.025z" fill="url(#c)"/>
 <path d="m351.08 392.97c-6.731 2.6136-9.8372 13.521-9.8372 18.086 0 5.3166 4.645 3.1114 13.348 5.5689 6.731-2.6136 11.973-0.7467 11.973-5.311 0-5.3166-6.7805-15.886-15.484-18.344z" fill="url(#b)"/>
 <path d="m-225.96 270.6c-4.272-0.01001-8.317 2.6599-10.462 6.2899-7.313-2.95-15.797-1.9299-22.574 1.97v60.2c6.082-3.1 14.191 2.51 20.477-1.27 5.285 4.98 13.701 5.76 20.076 2.5 5.885-6.35 12.877 3.99 20.343 1.38 7.063-6.13 10.683 4.52 17.355 4.02 10.652 0.66992 17.903-11.1 16.306-20.79-0.492-9.57-11.467-18.08-20.544-13.23-3.711-7.8-13.633-11.94-21.771-9.01-4.787 5.12-13.984-1.41-11.332-7.43 8.29-7.0199 4.439-23.77-7.027-24.58-0.28601-0.030029-0.56305-0.049927-0.84705-0.049927z" fill="url(#m)"/>
</svg>
