<?xml version="1.0" encoding="UTF-8" standalone="no"?>
<!-- Created with Inkscape (http://www.inkscape.org/) -->

<svg
   xmlns:dc="http://purl.org/dc/elements/1.1/"
   xmlns:cc="http://creativecommons.org/ns#"
   xmlns:rdf="http://www.w3.org/1999/02/22-rdf-syntax-ns#"
   xmlns:svg="http://www.w3.org/2000/svg"
   xmlns="http://www.w3.org/2000/svg"
   xmlns:sodipodi="http://sodipodi.sourceforge.net/DTD/sodipodi-0.dtd"
   xmlns:inkscape="http://www.inkscape.org/namespaces/inkscape"
   width="53.244678mm"
   height="17.698547mm"
   viewBox="0 0 53.244678 17.698547"
   version="1.1"
   id="svg8"
   inkscape:version="0.92.4 (5da689c313, 2019-01-14)"
   sodipodi:docname="logo.svg">
  <defs
     id="defs2">
    <clipPath
       clipPathUnits="userSpaceOnUse"
       id="clipPath26">
      <path
         d="m 157.987,185.744 89.646,0.974 0.918,-84.462 -89.646,-0.974 z"
         id="path24"
         inkscape:connector-curvature="0" />
    </clipPath>
    <clipPath
       clipPathUnits="userSpaceOnUse"
       id="clipPath40">
      <path
         d="M 0,288 H 560 V 0 H 0 Z"
         id="path38"
         inkscape:connector-curvature="0" />
    </clipPath>
  </defs>
  <sodipodi:namedview
     id="base"
     pagecolor="#ffffff"
     bordercolor="#666666"
     borderopacity="1.0"
     inkscape:pageopacity="0.0"
     inkscape:pageshadow="2"
     inkscape:zoom="0.35"
     inkscape:cx="392.04844"
     inkscape:cy="516.30321"
     inkscape:document-units="mm"
     inkscape:current-layer="layer1"
     showgrid="false"
     units="mm"
     height="43mm"
     inkscape:pagecheckerboard="true"
     fit-margin-top="0"
     fit-margin-left="0"
     fit-margin-right="0"
     fit-margin-bottom="0"
     inkscape:window-width="1366"
     inkscape:window-height="705"
     inkscape:window-x="-8"
     inkscape:window-y="-8"
     inkscape:window-maximized="1" />
  <metadata
     id="metadata5">
    <rdf:RDF>
      <cc:Work
         rdf:about="">
        <dc:format>image/svg+xml</dc:format>
        <dc:type
           rdf:resource="http://purl.org/dc/dcmitype/StillImage" />
        <dc:title></dc:title>
      </cc:Work>
    </rdf:RDF>
  </metadata>
  <g
     inkscape:label="Capa 1"
     inkscape:groupmode="layer"
     id="layer1"
     transform="translate(-2.1038511,-267.74001)">
    <g
       id="layer1-3"
       inkscape:label="Capa 1"
       transform="translate(-115.59937,167.74703)">
      <path
         inkscape:connector-curvature="0"
         id="path280-30"
         style="fill:#bfbfbf;fill-opacity:1;stroke:#000000;stroke-width:0.35277775;stroke-linecap:butt;stroke-linejoin:miter;stroke-miterlimit:10;stroke-dasharray:none;stroke-opacity:1"
         d="m 150.288,101.43852 c -0.41981,0.0727 -0.81492,0.2226 -1.18428,0.45226 -0.55245,0.34255 -0.99942,0.80469 -1.34161,1.38677 -0.4124,0.67204 -0.7045,1.39665 -0.87701,2.17347 -0.9719,-0.42193 -1.65417,-1.39383 -1.65417,-2.5206 0,-1.51906 1.2319,-2.74849 2.74849,-2.74849 0.96943,0 1.81857,0.49953 2.30858,1.25659 z" />
      <path
         inkscape:connector-curvature="0"
         id="path288-0"
         style="fill:#bfbfbf;fill-opacity:1;stroke:#000000;stroke-width:0.35277775;stroke-linecap:butt;stroke-linejoin:miter;stroke-miterlimit:10;stroke-dasharray:none;stroke-opacity:1"
         d="m 156.47403,102.66809 c 0,0.99413 -0.58209,1.85385 -1.42664,2.25602 -0.18979,-0.62477 -0.47237,-1.2118 -0.84208,-1.76178 -0.37465,-0.54927 -0.85442,-0.98425 -1.43651,-1.30386 -0.31961,-0.17498 -0.64946,-0.29986 -0.99166,-0.37712 0.42228,-0.78211 1.24919,-1.31198 2.19851,-1.31198 1.37901,0 2.49838,1.11689 2.49838,2.49872 z" />
      <path
         inkscape:connector-curvature="0"
         id="path296-2"
         style="fill:#bfbfbf;fill-opacity:1;stroke:#000000;stroke-width:0.35277775;stroke-linecap:butt;stroke-linejoin:miter;stroke-miterlimit:10;stroke-dasharray:none;stroke-opacity:1"
         d="m 153.7207,109.37637 c -0.0423,-0.0427 -0.13476,-0.17497 -0.27975,-0.39476 -0.33479,-0.45226 -0.59972,-0.79727 -0.79728,-1.03928 -0.33196,-0.37253 -0.59937,-0.55986 -0.80151,-0.55986 -0.20497,0 -0.37253,0.0674 -0.50765,0.20497 -0.13476,0.13723 -0.20214,0.30727 -0.20214,0.51223 0,0.20214 0.15981,0.49706 0.48225,0.88194 l 1.23154,1.49896 c -0.46707,0.37465 -1.11689,0.59937 -1.94874,0.67698 -1.02941,-0.0677 -1.784,-0.55457 -2.26342,-1.46897 -0.43462,-0.82197 -0.65441,-1.76636 -0.65441,-2.82575 0,-0.41487 0.03,-0.80962 0.0875,-1.18674 0.0921,-0.58703 0.25436,-1.12924 0.48931,-1.62419 0.4572,-0.92428 1.16416,-1.38395 2.12125,-1.38395 h 0.0374 c 0.2674,0.002 0.52211,0.0374 0.76447,0.10019 0.40992,0.10971 0.78211,0.30727 1.11689,0.59161 0.58208,0.48225 1.00683,1.08479 1.27177,1.8041 0.23741,0.61736 0.35242,1.32645 0.35242,2.11843 0,0.75989 -0.16757,1.45662 -0.49988,2.09409 z m 0.70203,0.87454 c 0.62477,-0.99942 0.93698,-2.0567 0.93698,-3.16583 0,-0.76447 -0.10478,-1.48378 -0.31221,-2.16112 -0.1898,-0.62476 -0.47237,-1.21179 -0.84208,-1.76141 -0.37465,-0.54963 -0.85443,-0.98425 -1.43651,-1.30422 -0.31962,-0.17498 -0.64947,-0.29951 -0.99202,-0.37712 -0.27975,-0.0674 -0.56973,-0.0998 -0.8643,-0.0998 -0.21484,0 -0.42228,0.0173 -0.62442,0.0571 -0.42016,0.0727 -0.81491,0.2226 -1.18463,0.45226 -0.55209,0.34255 -0.99941,0.80469 -1.34161,1.38677 -0.4124,0.67204 -0.7045,1.39665 -0.877,2.17346 -0.13477,0.58209 -0.19968,1.19204 -0.19968,1.83127 0,0.77964 0.15734,1.55928 0.47449,2.33398 0.3175,0.77435 0.79199,1.4164 1.42169,1.92828 0.62724,0.51012 1.33668,0.79975 2.12866,0.86502 1.07174,-0.11007 1.97627,-0.49989 2.71322,-1.16946 l 0.20496,0.24729 c 0.43745,0.58209 0.77929,0.87207 1.02941,0.87207 0.24976,0 0.42968,-0.0875 0.53728,-0.26247 0.10971,-0.17744 0.16475,-0.3496 0.16475,-0.51964 0,-0.16968 -0.1524,-0.43215 -0.45227,-0.78211 -0.32243,-0.35242 -0.48471,-0.53445 -0.48471,-0.54433 z" />
      <path
         inkscape:connector-curvature="0"
         id="path304-8"
         style="fill:#bfbfbf;fill-opacity:1;stroke:#000000;stroke-width:0.35277775;stroke-linecap:butt;stroke-linejoin:miter;stroke-miterlimit:10;stroke-dasharray:none;stroke-opacity:1"
         d="m 156.8316,104.12605 c 0.12383,-0.13793 0.25012,-0.20708 0.37888,-0.20708 0.12841,0 0.22896,0.0303 0.30022,0.09 0.0716,0.0603 0.1143,0.1143 0.12876,0.16193 0.0141,0.0483 0.031,0.13229 0.0501,0.25188 -0.0572,0.93557 -0.0861,1.778 -0.0861,2.52765 0,0.74965 0.072,1.60726 0.21484,2.57246 0.14288,0.9652 0.30022,1.4478 0.47167,1.4478 0.25753,0 0.58349,-0.17992 0.97931,-0.53975 0.39511,-0.35948 0.6791,-0.73766 0.85055,-1.13313 -0.11395,-1.72684 -0.17145,-3.20816 -0.17145,-4.44358 0,-0.25118 0.0646,-0.46743 0.19297,-0.64735 0.12876,-0.17957 0.28363,-0.26952 0.4646,-0.26952 0.29528,0 0.44345,0.25153 0.44345,0.75529 0,0.85196 0.0501,2.11667 0.15028,3.79554 0.0998,1.67922 0.20214,2.74637 0.30727,3.20216 0.0191,0.0963 0.0286,0.20673 0.0286,0.33303 0,0.12558 -0.0646,0.24553 -0.19297,0.35912 -0.12877,0.1143 -0.29563,0.17145 -0.50059,0.17145 -0.20497,0 -0.34114,-0.14428 -0.40711,-0.43215 -0.0194,-0.23954 -0.067,-0.59937 -0.14287,-1.07915 -0.66746,0.8756 -1.3395,1.31339 -2.01613,1.31339 -0.31468,0 -0.59619,-0.14993 -0.84384,-0.44979 -0.24765,-0.29986 -0.44344,-0.70767 -0.58632,-1.22343 -0.24765,-0.99519 -0.37147,-1.93075 -0.37147,-2.80599 0,-0.8756 0.0381,-1.95475 0.11465,-3.23815 0.0378,-0.20391 0.11888,-0.3743 0.24271,-0.51259 z" />
      <path
         inkscape:connector-curvature="0"
         id="path312-1"
         style="fill:#bfbfbf;fill-opacity:1;stroke:#000000;stroke-width:0.35277775;stroke-linecap:butt;stroke-linejoin:miter;stroke-miterlimit:10;stroke-dasharray:none;stroke-opacity:1"
         d="m 163.87993,110.39509 0.0145,1.25906 c 0,0.22825 -0.0713,0.41699 -0.21414,0.56692 -0.14323,0.14993 -0.29563,0.22436 -0.45755,0.22436 -0.23848,0 -0.36266,-0.14957 -0.37218,-0.44943 -0.12383,-3.82553 -0.18556,-5.94219 -0.18556,-6.35 0,-0.40746 0.0141,-0.90523 0.0427,-1.49296 0.019,-0.2159 0.12876,-0.32385 0.32879,-0.32385 0.50517,0 0.79128,0.25788 0.85795,0.77364 0.0286,0.26353 0.043,0.47378 0.043,0.62936 l -0.0575,1.13347 z m -0.60043,-9.42622 c 0.17145,0 0.33373,0.10195 0.48648,0.30586 0.15205,0.20425 0.22825,0.41663 0.22825,0.63852 0,0.22225 -0.0833,0.44733 -0.24977,0.67452 -0.16687,0.22824 -0.34114,0.34219 -0.52176,0.34219 -0.18168,0 -0.34607,-0.0963 -0.49354,-0.28822 -0.14816,-0.19156 -0.22154,-0.43744 -0.22154,-0.73731 0,-0.57573 0.24765,-0.88723 0.74366,-0.93556 z" />
      <path
         inkscape:connector-curvature="0"
         id="path320-6"
         style="fill:#bfbfbf;fill-opacity:1;stroke:#000000;stroke-width:0.35277775;stroke-linecap:butt;stroke-linejoin:miter;stroke-miterlimit:10;stroke-dasharray:none;stroke-opacity:1"
         d="m 168.15496,105.4121 -2.04435,0.2339 c -0.44803,0 -0.67204,-0.24554 -0.67204,-0.73766 0,-0.51541 0.23318,-0.79128 0.70061,-0.82727 0.14288,-0.012 1.06257,-0.018 2.75908,-0.018 0.35242,0 0.7052,0.11995 1.05798,0.35948 0.41028,0.28822 0.61524,0.74401 0.61524,1.36737 0,0.62371 -0.34325,1.30704 -1.02976,2.0507 -0.2861,0.31221 -0.5909,0.62336 -0.91475,0.93556 -1.05798,1.00754 -1.58715,1.64289 -1.58715,1.90641 0,0.17992 0.17886,0.27023 0.53587,0.27023 0.35772,0 0.68686,-0.0272 0.98672,-0.0811 0.30057,-0.054 0.62195,-0.11394 0.9652,-0.17991 0.3429,-0.066 0.55775,-0.0988 0.64347,-0.0988 0.4004,0 0.60043,0.17991 0.60043,0.53975 0,0.81527 -0.97226,1.22343 -2.91677,1.22343 -0.70556,0 -1.20791,-0.0963 -1.50812,-0.28822 -0.30057,-0.19191 -0.49848,-0.5334 -0.59373,-1.02517 -0.01,-0.072 -0.0141,-0.14394 -0.0141,-0.2159 0,-0.33585 0.1524,-0.74366 0.4572,-1.22344 0.4198,-0.64734 0.96731,-1.26505 1.64429,-1.85278 0.77224,-0.67134 1.21991,-1.14512 1.34409,-1.42099 0.0663,-0.15593 0.0907,-0.29351 0.0713,-0.41381 -0.0568,-0.33549 -0.42369,-0.50377 -1.10067,-0.50377 z" />
      <path
         inkscape:connector-curvature="0"
         id="path280-3-3"
         style="fill:#ffdbc4;fill-opacity:1;stroke:#000000;stroke-width:0.19408564;stroke-linecap:butt;stroke-linejoin:miter;stroke-miterlimit:10;stroke-dasharray:none;stroke-opacity:1"
         d="m 148.81441,101.74503 c -0.23096,0.04 -0.44833,0.12246 -0.65154,0.24881 -0.30394,0.18846 -0.54985,0.44271 -0.73811,0.76296 -0.22688,0.36973 -0.38759,0.76838 -0.4825,1.19576 -0.5347,-0.23213 -0.91006,-0.76684 -0.91006,-1.38674 0,-0.83574 0.67774,-1.51213 1.51212,-1.51213 0.53334,0 1.00051,0.27483 1.27009,0.69134 z" />
      <path
         inkscape:connector-curvature="0"
         id="path280-3-8-1"
         style="fill:#ffdbc4;fill-opacity:1;stroke:#000000;stroke-width:0.19408564;stroke-linecap:butt;stroke-linejoin:miter;stroke-miterlimit:10;stroke-dasharray:none;stroke-opacity:1"
         d="m 153.11252,101.58732 c 0.23096,0.04 0.44834,0.12246 0.65155,0.24882 0.30394,0.18845 0.54984,0.4427 0.73811,0.76294 0.22688,0.36974 0.38759,0.76839 0.48249,1.19577 0.53471,-0.23213 0.91007,-0.76683 0.91007,-1.38675 0,-0.83573 -0.67775,-1.51212 -1.51212,-1.51212 -0.53335,0 -1.00051,0.27483 -1.2701,0.69134 z" />
      <path
         inkscape:connector-curvature="0"
         id="path144-5-4"
         style="fill:#fe6500;fill-opacity:1;stroke:#000000;stroke-width:0.35277775;stroke-linecap:butt;stroke-linejoin:miter;stroke-miterlimit:10;stroke-dasharray:none;stroke-opacity:1"
         d="m 120.95157,101.28986 c 0.57362,0 1.06116,0.12242 1.46262,0.36654 0.40181,0.24448 0.60254,0.55527 0.60254,0.93274 0,0.16652 -0.0328,0.31115 -0.0991,0.43322 -0.066,0.12241 -0.16333,0.18344 -0.29139,0.18344 -0.12806,0 -0.40358,-0.12524 -0.82762,-0.375 -0.42333,-0.24977 -0.80998,-0.37465 -1.15852,-0.37465 -0.34855,0 -0.70838,0.13864 -1.0788,0.41628 -0.37077,0.27763 -0.55633,0.6163 -0.55633,1.016 0,0.54433 0.22543,0.94403 0.67522,1.19944 0.33584,0.18909 0.81668,0.35807 1.44321,0.50835 0.62689,0.14993 1.13877,0.45544 1.536,0.91617 0.39723,0.46073 0.59584,1.15746 0.59584,2.09056 0,1.42169 -0.34008,2.47121 -1.01917,3.14819 -0.37995,0.37817 -0.91617,0.56656 -1.60902,0.56656 -0.69286,0 -1.3836,-0.23848 -2.07187,-0.71614 -0.45014,-0.29986 -0.67557,-0.60008 -0.67557,-0.89958 0,-0.11078 0.0374,-0.23319 0.11289,-0.36654 0.0748,-0.13335 0.17851,-0.24412 0.31115,-0.33302 0.13229,-0.0889 0.25365,-0.10266 0.36372,-0.042 0.11041,0.061 0.28927,0.16968 0.53657,0.3249 0.24694,0.15558 0.42792,0.26106 0.54293,0.31645 0.37041,0.1778 0.71896,0.2667 1.04563,0.2667 0.32667,0 0.64205,-0.2025 0.9465,-0.60784 0.3048,-0.40534 0.45685,-0.9024 0.45685,-1.49119 0,-0.77717 -0.30903,-1.32151 -0.92675,-1.63266 -0.29986,-0.15522 -0.63994,-0.27164 -1.01917,-0.3496 -0.78599,-0.17745 -1.37725,-0.47484 -1.77448,-0.89112 -0.39722,-0.41663 -0.59584,-1.04669 -0.59584,-1.89089 0,-0.84384 0.28681,-1.50741 0.86078,-1.99072 0.57362,-0.48295 1.31057,-0.72461 2.21121,-0.72461 z" />
      <path
         inkscape:connector-curvature="0"
         id="path152-3-2"
         style="fill:#fe6500;fill-opacity:1;stroke:#000000;stroke-width:0.35277775;stroke-linecap:butt;stroke-linejoin:miter;stroke-miterlimit:10;stroke-dasharray:none;stroke-opacity:1"
         d="m 125.09569,107.30363 v 3.09845 c 0.0526,0.0332 0.11465,0.0889 0.18521,0.16651 0.25611,0.28893 0.5341,0.43286 0.83432,0.43286 1.21814,0 1.82703,-0.78811 1.82703,-2.36538 0,-1.34337 -0.27375,-2.19286 -0.82091,-2.54846 -0.22966,-0.15558 -0.51188,-0.23319 -0.84737,-0.23319 -0.32668,0.0554 -0.60467,0.23601 -0.83397,0.54116 -0.22966,0.30551 -0.34431,0.60819 -0.34431,0.90805 z m 1.00647,4.99745 c -0.30021,0 -0.57855,-0.12735 -0.83467,-0.38311 l -0.1718,-0.1831 v 4.99745 c -0.0529,0.2219 -0.1457,0.40817 -0.27799,0.5581 -0.13229,0.14958 -0.27376,0.22472 -0.42369,0.22472 -0.22966,0 -0.34431,-0.19403 -0.34431,-0.58279 v -11.61133 c 0.0533,-0.28857 0.11677,-0.49389 0.19191,-0.6163 0.0748,-0.12206 0.19403,-0.18309 0.35772,-0.18309 0.16334,0 0.26882,0.0473 0.3175,0.14146 0.0487,0.0945 0.10795,0.35278 0.17886,0.7747 0.0353,-0.2219 0.17639,-0.42721 0.42368,-0.6163 0.24695,-0.18874 0.57785,-0.28328 0.99307,-0.28328 0.89994,0 1.54023,0.41098 1.91982,1.23295 0.37924,0.82198 0.56903,1.79035 0.56903,2.90654 0,1.11619 -0.25788,1.99919 -0.77435,2.64866 -0.51646,0.64981 -1.22484,0.97472 -2.12478,0.97472 z" />
      <path
         inkscape:connector-curvature="0"
         id="path160-8-18"
         style="fill:#fe6500;fill-opacity:1;stroke:#000000;stroke-width:0.35277775;stroke-linecap:butt;stroke-linejoin:miter;stroke-miterlimit:10;stroke-dasharray:none;stroke-opacity:1"
         d="m 131.64928,105.75437 c -0.33549,0 -0.6223,0.23883 -0.86043,0.71614 -0.0882,0.16687 -0.17215,0.54434 -0.25153,1.13277 1.23578,0 1.8535,-0.38311 1.8535,-1.14935 0,-0.46637 -0.2473,-0.69956 -0.74154,-0.69956 z m -0.066,-1.14935 c 0.46778,0 0.91334,0.17216 1.33738,0.51647 0.42333,0.34431 0.635,0.76905 0.635,1.27423 0,0.50553 -0.1718,0.99413 -0.51611,1.46615 -0.34431,0.47201 -0.80328,0.75776 -1.37725,0.8576 -0.24694,0.0448 -0.61771,0.0667 -1.11195,0.0667 0.097,0.94403 0.2868,1.56598 0.56938,1.86584 0.0882,0.12241 0.20743,0.18309 0.35736,0.18309 0.54716,0 1.00613,-0.21908 1.3769,-0.65793 0.37076,-0.4385 0.6357,-0.65793 0.79445,-0.65793 0.0705,0 0.17674,0.0832 0.3175,0.24976 0.14146,0.16687 0.21237,0.32209 0.21237,0.46638 0,0.28892 -0.27834,0.70555 -0.83432,1.24954 -0.24694,0.25541 -0.54504,0.46919 -0.89358,0.64135 -0.3489,0.1725 -0.67346,0.25823 -0.97332,0.25823 -0.76799,0 -1.33279,-0.62195 -1.69474,-1.86584 -0.22931,-0.76624 -0.34431,-1.61008 -0.34431,-2.53224 0,-0.92146 0.17251,-1.71591 0.51646,-2.38196 0.34432,-0.6664 0.88724,-0.99942 1.62878,-0.99942 z" />
      <path
         inkscape:connector-curvature="0"
         id="path168-9-08"
         style="fill:#fe6500;fill-opacity:1;stroke:#000000;stroke-width:0.35277775;stroke-linecap:butt;stroke-linejoin:miter;stroke-miterlimit:10;stroke-dasharray:none;stroke-opacity:1"
         d="m 136.91889,105.75437 c -0.33549,0 -0.62265,0.23883 -0.86042,0.71614 -0.0885,0.16687 -0.17251,0.54434 -0.25188,1.13277 1.23578,0 1.85384,-0.38311 1.85384,-1.14935 0,-0.46637 -0.24765,-0.69956 -0.74154,-0.69956 z m -0.066,-1.14935 c 0.46743,0 0.91299,0.17216 1.33668,0.51647 0.42404,0.34431 0.6357,0.76905 0.6357,1.27423 0,0.50553 -0.17215,0.99413 -0.51682,1.46615 -0.34395,0.47201 -0.80292,0.75776 -1.37653,0.8576 -0.24695,0.0448 -0.61807,0.0667 -1.11196,0.0667 0.0967,0.94403 0.28646,1.56598 0.56903,1.86584 0.0882,0.12241 0.20743,0.18309 0.35772,0.18309 0.5468,0 1.00612,-0.21908 1.37689,-0.65793 0.37042,-0.4385 0.63535,-0.65793 0.79445,-0.65793 0.0702,0 0.17604,0.0832 0.3175,0.24976 0.14112,0.16687 0.21202,0.32209 0.21202,0.46638 0,0.28892 -0.27799,0.70555 -0.83396,1.24954 -0.2473,0.25541 -0.54504,0.46919 -0.89394,0.64135 -0.3489,0.1725 -0.6731,0.25823 -0.97296,0.25823 -0.768,0 -1.33315,-0.62195 -1.69475,-1.86584 -0.22966,-0.76624 -0.34431,-1.61008 -0.34431,-2.53224 0,-0.92146 0.17216,-1.71591 0.51647,-2.38196 0.34431,-0.6664 0.88688,-0.99942 1.62877,-0.99942 z" />
      <path
         inkscape:connector-curvature="0"
         id="path176-2-6"
         style="fill:#fe6500;fill-opacity:1;stroke:#000000;stroke-width:0.35277775;stroke-linecap:butt;stroke-linejoin:miter;stroke-miterlimit:10;stroke-dasharray:none;stroke-opacity:1"
         d="m 143.45251,106.79549 c -0.066,-0.23848 -0.14322,-0.42192 -0.23142,-0.54998 -0.0882,-0.12735 -0.18344,-0.20532 -0.28469,-0.23283 -0.1016,-0.0275 -0.22331,-0.0416 -0.36407,-0.0416 -0.14146,0 -0.31362,0.0667 -0.51646,0.19967 -0.2032,0.13335 -0.37501,0.34996 -0.51647,0.64982 -0.28257,0.59972 -0.42369,1.23013 -0.42369,1.89089 0,0.66075 0.10372,1.19909 0.31151,1.61572 0.20708,0.41628 0.50306,0.62442 0.88688,0.62442 0.38382,0 0.68615,-0.23848 0.90699,-0.71614 0.22049,-0.47731 0.33091,-1.08832 0.33091,-1.83233 0,-0.83291 -0.0332,-1.36878 -0.0995,-1.60761 z m -0.0727,-2.27365 -0.013,-3.21522 c 0,-0.59972 0.15205,-0.89958 0.45685,-0.89958 0.30445,0 0.47413,0.16651 0.50941,0.49988 0.0177,0.14429 0.0399,1.016 0.0663,2.61515 0.0265,1.59914 0.0681,3.09844 0.12594,4.49791 0.0572,1.39912 0.0861,2.70404 0.0861,3.91442 0,0.33338 -0.19861,0.49989 -0.59584,0.49989 -0.26493,0 -0.39723,-0.23319 -0.39723,-0.69956 -0.37958,0.37747 -0.83008,0.56621 -1.35043,0.56621 -0.66181,0 -1.19838,-0.31044 -1.60867,-0.93274 -0.41063,-0.62195 -0.61595,-1.38818 -0.61595,-2.2987 0,-0.91052 0.14782,-1.76319 0.4438,-2.55729 0.29563,-0.79375 0.75635,-1.36313 1.38359,-1.70744 0.38806,-0.21097 0.76341,-0.31645 1.12501,-0.31645 0.13265,0 0.26035,0.0113 0.38418,0.0335 z" />
    </g>
  </g>
</svg>
