<!DOCTYPE svg PUBLIC "-//W3C//DTD SVG 20010904//EN" "http://www.w3.org/TR/2001/REC-SVG-20010904/DTD/svg10.dtd">
<svg version="1.0" xmlns="http://www.w3.org/2000/svg" width="216px" height="90px" viewBox="0 0 2160 900" preserveAspectRatio="xMidYMid meet">
<g id="layer101" fill="#ee8840" stroke="none">
 <path d="M281 607 c-42 -93 -45 -107 -26 -107 9 0 25 5 36 11 16 8 30 7 59 -5 22 -9 41 -12 44 -8 6 11 -64 172 -76 172 -5 0 -22 -28 -37 -63z"/>
 <path d="M2000 545 c0 -11 7 -13 29 -9 22 5 32 2 40 -14 9 -18 7 -19 -27 -18 -30 1 -38 -3 -50 -27 -28 -57 6 -108 69 -105 l39 1 0 82 c0 50 -5 86 -12 93 -18 18 -88 16 -88 -3z m80 -103 c0 -27 -15 -52 -31 -52 -4 0 -15 7 -23 16 -21 21 -20 61 1 73 26 14 53 -5 53 -37z"/>
 <path d="M123 487 c-40 -18 -73 -37 -73 -43 0 -10 144 -74 168 -74 15 0 15 0 -2 41 -12 29 -12 39 0 68 8 18 14 35 14 37 0 11 -42 -1 -107 -29z"/>
 <path d="M410 512 c0 -6 5 -23 12 -37 8 -19 8 -34 0 -62 -6 -20 -9 -39 -7 -42 6 -5 140 48 163 65 15 11 8 16 -52 43 -83 38 -116 47 -116 33z"/>
 <path d="M682 505 c-17 -13 -22 -26 -22 -59 0 -50 22 -76 63 -76 22 0 27 -5 27 -25 0 -16 6 -25 15 -25 12 0 15 17 15 95 0 94 0 95 -24 95 -13 0 -30 2 -38 5 -7 3 -23 -2 -36 -10z m52 -21 c22 -9 22 -80 0 -88 -25 -9 -44 12 -44 49 0 43 10 52 44 39z"/>
 <path d="M1066 505 c-9 -9 -16 -24 -16 -34 0 -24 31 -51 59 -51 14 0 21 -5 18 -12 -2 -8 -17 -12 -36 -10 -22 1 -31 -2 -31 -13 0 -19 70 -21 88 -3 7 7 12 38 12 70 0 49 -3 58 -17 58 -10 0 -27 3 -39 6 -13 3 -28 -1 -38 -11z m62 -44 c3 -20 1 -22 -20 -16 -30 10 -32 11 -24 30 9 24 40 14 44 -14z"/>
 <path d="M1395 508 c-28 -16 -35 -28 -35 -63 0 -58 53 -95 97 -67 36 23 35 102 0 127 -25 18 -35 18 -62 3z m58 -39 c13 -20 1 -68 -18 -76 -24 -8 -45 16 -45 52 0 17 3 35 7 39 12 11 45 2 56 -15z"/>
 <path d="M1538 513 c-10 -2 -18 -11 -18 -18 0 -10 9 -12 35 -8 47 7 49 -20 3 -33 -27 -8 -34 -15 -36 -41 -3 -27 1 -33 22 -39 32 -8 58 -2 63 13 3 9 -4 11 -27 6 -28 -5 -32 -3 -28 13 2 10 12 20 23 22 48 9 60 50 23 76 -23 16 -29 17 -60 9z"/>
 <path d="M1683 509 c-20 -7 -23 -16 -23 -57 0 -26 -6 -54 -12 -61 -10 -11 -10 -14 0 -18 6 -3 12 -13 12 -24 0 -10 5 -19 10 -19 6 0 10 9 10 20 0 13 7 20 19 20 31 0 35 19 6 26 -23 6 -26 11 -23 48 2 34 7 42 26 44 12 2 22 7 22 12 0 13 -24 18 -47 9z"/>
 <path d="M822 443 c2 -42 8 -68 16 -71 9 -3 12 15 12 67 0 57 -3 71 -15 71 -13 0 -15 -12 -13 -67z"/>
 <path d="M900 442 l0 -68 47 -2 c28 -1 50 3 55 11 4 6 8 38 8 70 0 44 -3 57 -15 57 -11 0 -15 -13 -15 -53 0 -61 -5 -70 -31 -56 -15 7 -19 21 -19 59 0 38 -4 50 -15 50 -12 0 -15 -14 -15 -68z"/>
 <path d="M1210 415 c0 -78 3 -95 15 -95 10 0 15 10 15 29 0 25 3 28 25 23 41 -7 55 13 55 79 0 46 -3 59 -15 59 -11 0 -15 -13 -15 -54 0 -30 -5 -58 -10 -61 -22 -13 -40 17 -40 66 0 37 -4 49 -15 49 -12 0 -15 -17 -15 -95z"/>
 <path d="M1760 439 c0 -52 3 -70 13 -67 7 3 13 29 15 71 2 55 0 67 -13 67 -12 0 -15 -14 -15 -71z"/>
 <path d="M1834 496 c-3 -7 -4 -38 -2 -67 l3 -54 48 -3 c43 -3 48 -1 57 23 16 42 13 115 -5 115 -11 0 -15 -13 -15 -54 0 -57 -11 -71 -42 -54 -14 6 -18 21 -18 58 0 47 -14 67 -26 36z"/>
 <path d="M241 388 c1 -24 64 -161 75 -165 12 -4 86 155 78 168 -3 5 -21 2 -40 -6 -31 -13 -40 -13 -71 0 -43 18 -43 18 -42 3z"/>
 <path d="M822 338 c6 -18 28 -21 28 -4 0 9 -7 16 -16 16 -9 0 -14 -5 -12 -12z"/>
 <path d="M1762 339 c2 -6 8 -10 13 -10 5 0 11 4 13 10 2 6 -4 11 -13 11 -9 0 -15 -5 -13 -11z"/>
 </g>
<g id="layer102" fill="#bcbdbd" stroke="none">
 <path d="M281 607 c-42 -93 -45 -107 -26 -107 9 0 25 5 36 11 16 8 30 7 59 -5 22 -9 41 -12 44 -8 6 11 -64 172 -76 172 -5 0 -22 -28 -37 -63z"/>
 <path d="M123 487 c-40 -18 -73 -37 -73 -43 0 -10 144 -74 168 -74 15 0 15 0 -2 41 -12 29 -12 39 0 68 8 18 14 35 14 37 0 11 -42 -1 -107 -29z"/>
 <path d="M682 505 c-17 -13 -22 -26 -22 -59 0 -50 22 -76 63 -76 22 0 27 -5 27 -25 0 -16 6 -25 15 -25 12 0 15 17 15 95 0 94 0 95 -24 95 -13 0 -30 2 -38 5 -7 3 -23 -2 -36 -10z m52 -21 c22 -9 22 -80 0 -88 -25 -9 -44 12 -44 49 0 43 10 52 44 39z"/>
 <path d="M1066 505 c-9 -9 -16 -24 -16 -34 0 -24 31 -51 59 -51 14 0 21 -5 18 -12 -2 -8 -17 -12 -36 -10 -22 1 -31 -2 -31 -13 0 -19 70 -21 88 -3 7 7 12 38 12 70 0 49 -3 58 -17 58 -10 0 -27 3 -39 6 -13 3 -28 -1 -38 -11z m62 -44 c3 -20 1 -22 -20 -16 -30 10 -32 11 -24 30 9 24 40 14 44 -14z"/>
 <path d="M822 443 c2 -42 8 -68 16 -71 9 -3 12 15 12 67 0 57 -3 71 -15 71 -13 0 -15 -12 -13 -67z"/>
 <path d="M900 442 l0 -68 47 -2 c28 -1 50 3 55 11 4 6 8 38 8 70 0 44 -3 57 -15 57 -11 0 -15 -13 -15 -53 0 -61 -5 -70 -31 -56 -15 7 -19 21 -19 59 0 38 -4 50 -15 50 -12 0 -15 -14 -15 -68z"/>
 <path d="M1232 464 c-1 -28 3 -55 10 -62 9 -9 9 -12 0 -12 -7 0 -11 -14 -10 -37 1 -38 1 -38 5 -5 2 18 8 30 13 27 9 -5 7 9 -3 35 -4 8 -8 35 -10 60 l-4 45 -1 -51z"/>
 <path d="M1290 453 c-3 -34 -1 -58 3 -54 5 4 7 32 5 62 l-3 54 -5 -62z"/>
 <path d="M1598 500 c17 -20 15 -47 -5 -59 -10 -6 -13 -11 -7 -11 32 -1 45 50 17 71 -15 11 -16 11 -5 -1z"/>
 <path d="M1782 448 c-1 -42 -7 -68 -14 -71 -10 -4 -10 -6 0 -6 19 -1 24 19 19 85 l-3 59 -2 -67z"/>
 <path d="M1943 460 c0 -30 2 -43 4 -27 2 15 2 39 0 55 -2 15 -4 2 -4 -28z"/>
 <path d="M1834 435 c1 -59 1 -60 31 -62 20 -1 25 1 16 6 -8 5 -20 7 -27 4 -9 -3 -14 11 -17 54 l-3 58 0 -60z"/>
 <path d="M241 388 c1 -24 64 -161 75 -165 12 -4 86 155 78 168 -3 5 -21 2 -40 -6 -31 -13 -40 -13 -71 0 -43 18 -43 18 -42 3z"/>
 <path d="M822 338 c6 -18 28 -21 28 -4 0 9 -7 16 -16 16 -9 0 -14 -5 -12 -12z"/>
 </g>
<g id="layer103" fill="#f7c29d" stroke="none">
 <path d="M1232 464 c-1 -28 3 -55 10 -62 9 -9 9 -12 0 -12 -7 0 -11 -14 -10 -37 1 -38 1 -38 5 -5 2 18 8 30 13 27 9 -5 7 9 -3 35 -4 8 -8 35 -10 60 l-4 45 -1 -51z"/>
 <path d="M1290 453 c-3 -34 -1 -58 3 -54 5 4 7 32 5 62 l-3 54 -5 -62z"/>
 <path d="M1598 500 c17 -20 15 -47 -5 -59 -10 -6 -13 -11 -7 -11 32 -1 45 50 17 71 -15 11 -16 11 -5 -1z"/>
 <path d="M1782 448 c-1 -42 -7 -68 -14 -71 -10 -4 -10 -6 0 -6 19 -1 24 19 19 85 l-3 59 -2 -67z"/>
 <path d="M1943 460 c0 -30 2 -43 4 -27 2 15 2 39 0 55 -2 15 -4 2 -4 -28z"/>
 <path d="M1834 435 c1 -59 1 -60 31 -62 20 -1 25 1 16 6 -8 5 -20 7 -27 4 -9 -3 -14 11 -17 54 l-3 58 0 -60z"/>
 </g>

</svg>